<?xml version="1.0" encoding="utf-8"?>
<!-- Generator: Adobe Illustrator 21.0.0, SVG Export Plug-In . SVG Version: 6.00 Build 0)  -->
<svg version="1.1" xmlns="http://www.w3.org/2000/svg" xmlns:xlink="http://www.w3.org/1999/xlink" x="0px" y="0px"
	 viewBox="0 0 2000 800" style="enable-background:new 0 0 2000 800;" xml:space="preserve">
<style type="text/css">
	.st0{fill:#263238;}
	.st1{fill:#FFC107;}
	.st2{fill:#FFD600;}
	.st3{fill:#FFEA00;}
	.st4{fill:#FFFF00;}
	.st5{fill:#FFFFFF;}
	.st6{fill:#5C6BC0;}
	.st7{fill:#C62828;}
	.st8{fill:#F44336;}
	.st9{fill:#EEEEEE;}
	.st10{fill:#546E7A;}
	.st11{fill:#F5F5F5;}
</style>
<g id="Calque_1">
	<path class="st0" d="M99,84.2H631c27.5,0,49.9,22.3,49.9,49.9V666c0,27.5-22.3,49.9-49.9,49.9H99c-27.5,0-49.9-22.3-49.9-49.9V134
		C49.2,106.5,71.5,84.2,99,84.2z"/>
	<path class="st1" d="M365,400l149.4-66.2L629,283v233L365,664V400z"/>
	<path class="st2" d="M365,400V136l264,147v233L365,400z"/>
	<path class="st3" d="M365,136l264,147L365,400L101,283L365,136z"/>
	<path class="st4" d="M101,283v233l264-116V136L101,283z"/>
	<path class="st3" d="M101,283l264,117v264L101,516V283z"/>
	<path class="st2" d="M365,400L101,516l264,148V400z"/>
	<path class="st5" d="M473.1,366.8c55,0,55.8-83.1,0-83.1S418.1,366.8,473.1,366.8z"/>
	<path class="st6" d="M457.4,361.6c27.5,0,27.9-41.6,0-41.6C429.5,320,429.9,361.6,457.4,361.6L457.4,361.6z"/>
	<path class="st5" d="M257,366.8c55,0,55.8-83.1,0-83.1S201.9,366.8,257,366.8z"/>
	<path class="st6" d="M272.5,361.6c27.5,0,27.9-41.6,0-41.6S245,361.6,272.5,361.6L272.5,361.6z"/>
	<path d="M281.9,449.9h166.2c0,0-20.8,66.5-83.1,66.5C302.6,516.4,281.9,449.9,281.9,449.9z"/>
	<path class="st7" d="M398.8,509.4c0,0-14.9,6.9-33.8,6.9c-18.9,0-33.8-6.9-33.8-6.9s5.5-23.5,33.7-23.5s33.7,23.5,33.7,23.5
		L398.8,509.4z"/>
</g>
<g id="Calque_2">
	<g>
		<path class="st8" d="M590,240c0,0,0-200-180-200S160,90,90,160c270-80,80,70,80,70L590,240z"/>
	</g>
	<path class="st9" d="M110.1,260c-0.9,20,1.7,30,40.9,30s40.9-30,80-30s60.9,10,100,10s80.9-30,110-30s59.1,30,99.1,30
		s80.7,0,79.9-20s-39.9-20-79.9-20s-58.3-30-99.1-30s-69.1,30-110,30s-59.1-10-100-10S111,240,110.1,260z"/>
	<circle class="st5" cx="95" cy="165" r="35"/>
	<g>
		<path class="st2" d="M731.4,403.3l0.7-5c0.1-0.6,0.2-1,0.2-1.2v-0.4c-0.5-0.4-0.9-0.9-1.4-1.6c-0.5-0.9-0.7-2.2-0.7-3.9
			c0-0.4,0.1-0.9,0.2-1.8v-1.2v-5.8v-6c0-1.4,0-3.2-0.1-5.2c-0.1-2.1-0.2-4-0.4-5.8c-0.2-1.8-0.4-3.7-0.8-5.6c0-0.4-0.1-1.1-0.4-2.1
			c-0.4-1.1-0.6-1.9-0.7-2.7c-0.4-2.5-0.2-4.4,0.5-5.8c1.1-1.9,3.5-3.5,7.3-5c3.3-1.4,7-2.4,11-3c4.2-0.6,8-0.6,11.2,0
			c3.9,0.8,6.3,2.5,7.3,5c1.5,4.1,1.9,7.8,1.2,11c-0.2,1.1-0.9,2.8-1.9,5.3c-0.8,1.8-1.3,3.2-1.4,4.4c-0.2,1.9-0.5,5.4-0.7,10.4
			c-0.1,4.6-0.4,8.3-0.9,11c0,0.1-0.1,0.2-0.2,0.2c0.2,3.4,0.4,5.9,0.5,7.4c0.2,3.8,0.5,6.6,0.9,8.5c0.1,0.5,0.2,0.9,0.2,1.4
			l0.7-0.4c2.5-1.1,4.1-1.7,4.8-1.9c0.4,0,1.2-0.1,2.7-0.4c1.4-0.2,2.5-0.4,3.4-0.5c1.3-0.2,2.3-0.5,3-0.7h0.5
			c0.1-0.1,0.2-0.3,0.2-0.5c0.1-0.7,0.2-1.8,0.2-3.2c0-2.2-0.2-5.5-0.7-9.9l-0.9-9.7c-0.2-1.7-0.3-2.9-0.2-3.9
			c0-0.5,0.1-0.9,0.2-1.2c-0.6-3.4-1.1-7.4-1.6-11.9c-0.5-4.8-0.8-9-1.1-12.4c-0.2-1.9-0.4-3.4-0.4-4.4v-1.6c0.1-0.6,0.2-1,0.4-1.2
			c0.5-1.1,1.5-1.9,3-2.7c1.2-0.5,2.7-0.9,4.4-1.2c3.2-0.6,7-0.8,11.3-0.7c4.4,0.1,8.2,0.5,11.5,1.2c1.8,0.4,3.2,0.8,4.4,1.2
			c1.4,0.6,2.4,1.3,3,2.1c2.2,3.3,3.3,8.2,3.2,14.7c0,6.3-1,11-3,14.3c-1.2,1.8-2.5,2.8-4.1,3c-0.1,1.7-0.4,4-0.7,7.1l-0.2,1.4
			c0,0.1,0,0.2,0,0.4c0,0.7-0.1,1.4-0.4,2.1c-1.1,9-1.6,14.5-1.6,16.6c0,1.1,0.5,5.5,1.4,13.3c1.2,9.8,2,17.4,2.5,22.8
			c0.9,9.4,1.4,16.9,1.2,22.5c-0.1,3.4-0.4,6.2-0.9,8.3c-0.6,3.1-1.8,5.1-3.5,6.2c-3.5,1.9-8.1,2.7-13.6,2.3
			c-6.4-0.5-10.7-2.5-13.1-6.2c-1.1-1.8-1.4-3.7-1.1-5.7c0-3.5,0.1-7.5,0.4-11.9c0-0.9,0.1-2.4,0.2-4.2c0.1-1.5,0.4-5.2,0.7-11v-1.8
			c0-3.8-0.2-6.7-0.7-8.8c-0.2-1.2-0.5-1.9-0.9-2.3c-5.7-1.1-9.4,0-11.2,3.2c-1.7,2.8-2.2,7.8-1.8,14.9c0.2,2.4,0.6,5.8,1.2,10.2
			c0.5,4.4,0.9,7.5,1.2,9.3c0.2,3.5,0.2,6.4-0.2,8.5c-0.5,3.2-1.7,5.5-3.5,6.9c-1.4,1.1-3.4,1.8-6,2.1c-2.1,0.4-4.5,0.5-7.1,0.4
			c-2.6-0.1-5-0.5-7.1-1.1c-2.6-0.7-4.5-1.8-5.8-3.2c-0.6-0.6-1-1.4-1.2-2.5c-1.2-1.2-1.7-2.6-1.6-4.2c0.5-7.7,0.2-17.9-0.7-30.8
			c-1.2-16-1.8-26.7-1.8-31.9v-0.4C731.5,405.4,731.3,404.3,731.4,403.3z M742.9,392.3c0.6,2.1,1.5,3.4,2.8,3.9
			c0.9,0.4,1.9-0.2,2.8-1.6c2.2-3.4,3.3-7.3,3.2-11.5c0-0.6-0.1-1.4-0.2-2.3c-0.1-1.1-0.2-1.8-0.2-2.1c0-1.1,0.2-1.9,0.5-2.7
			c0.7-1.5,1.9-2.4,3.5-2.7c1.4-0.1,2.6,0.3,3.5,1.2c0.1-3.4,0.3-6.1,0.5-8.1c0.2-1.5,0.8-3.4,1.6-5.5c1.1-2.2,1.7-3.8,1.8-4.6
			c0.6-2.6,0.3-5.5-0.9-8.8c-0.6-1.4-2.2-2.4-4.8-2.8c-2.7-0.5-6-0.5-9.9,0c-3.8,0.6-7.2,1.5-10.3,2.7c-2.9,1.2-4.7,2.4-5.3,3.5
			c-0.4,0.6-0.4,1.8-0.2,3.5c0.1,0.6,0.3,1.4,0.5,2.5c0.2,1.1,0.4,1.8,0.5,2.1c0.4,2.5,0.6,5.1,0.9,8c0.2,2.8,0.4,5,0.4,6.4
			c0.1,1.4,0.1,4.1,0,8c-0.1,3.9-0.1,6.2-0.1,6.9c0,0.4,0,0.9-0.1,1.6c-0.1,0.7-0.1,1.2-0.1,1.4c0,0.9,0.1,1.7,0.4,2.1
			c0.4-0.4,0.7-0.6,1.1-0.9l0.7-0.9c0.6-0.6,1.1-1,1.4-1.2c0.8-0.6,1.7-0.9,2.5-0.9c0.2,0.1,0.5,0.2,0.9,0.4
			C741.9,390.2,742.7,391,742.9,392.3z M791.2,378.1c1.5-0.2,2.7-0.8,3.5-1.8c0.8-0.9,1.5-2.3,2.2-4.1c0.8-2.5,1.5-4,1.9-4.6v-0.4
			c0.2-0.5,0.5-0.9,0.9-1.2c1.1-1.2,2.4-1.9,3.9-2.3c1.1-0.2,1.8,0.2,2.1,1.4v0.9c0.6,0.6,1.1,1.3,1.4,2.1c0.2,0.6,0.4,1.3,0.5,2.1
			c0.4-0.2,0.7-0.6,1.1-1.2c1.8-2.7,2.7-6.9,2.7-12.6c0.1-5.8-0.7-10-2.5-12.6c-0.2-0.4-0.8-0.7-1.6-1.1c-0.9-0.4-2.2-0.7-3.7-1.1
			c-3.1-0.6-6.7-0.9-10.8-1.1c-4.1-0.1-7.7,0.1-10.8,0.7c-1.4,0.2-2.6,0.6-3.5,1.1c-0.6,0.2-1,0.5-1.2,0.7v1.2
			c0,1.1,0.1,2.5,0.4,4.2c0.2,3.5,0.6,7.7,1.1,12.4c0.2,1.8,0.4,3.4,0.5,5c0.6-1.1,1.2-1.8,1.9-2.3c0.6-0.5,1.2-0.6,1.8-0.5
			c0.6,0,1.2,0.2,1.8,0.7c0.5,0.5,1,1.3,1.6,2.5c0.4,0.7,0.8,1.8,1.2,3.2l2.5,6.4c0.4,0.9,0.7,1.6,1.1,1.9L791.2,378.1z"/>
		<path class="st2" d="M930.5,448.6c2.6,3.8,4.4,7.4,5.5,10.8c1.1,3.4,1,7.4-0.2,12c-0.1,0.6-0.3,1.2-0.5,1.8
			c-0.6,1.7-1.7,3.1-3.3,4.4c-1.6,1.3-3.2,2.2-4.7,2.8c-6.1,2.1-11.4,1.4-15.8-2.3c-2.8-2.4-5.6-6.5-8.3-12.4
			c-3.3-7.1-5.2-11-5.7-11.9c-1.7-2.5-3.2-3.7-4.8-3.5c-6.6,0.6-11.7,1.1-15.2,1.6c-3.4,0.5-6.2,1-8.3,1.6c-2.2,0.5-3.5,0.9-3.9,1.2
			c-0.2,0.2-0.4,0.8-0.5,1.6c-0.1,0.7-0.3,2.4-0.5,5c-0.4,6.1-1.7,10.4-3.9,12.9c-3.5,4-8.3,6.1-14.3,6.4c-6.8,0.2-11.5-2.4-14-8
			c-0.1-0.2-0.2-0.6-0.4-1.2c-0.1-0.2-0.2-0.6-0.2-1.1c-0.1-0.7-0.3-1.6-0.5-2.7c-0.1-1.1-0.2-1.9-0.2-2.7c-0.1-1.2-0.2-2.1-0.2-2.7
			c0.5-2.4,1.6-5.4,3.4-9c1.9-4,3-6.5,3.4-7.6c0.7-2.2,1.8-5.5,3.4-9.7l3.7-10.4c0.9-2.6,1.9-5.7,3-9.4c1.1-3.7,1.9-7,2.7-10.1
			c-0.7,0.2-1.4,0.4-2.1,0.5c-1.7,0-3-0.7-4.1-2.1c-0.4-0.6-0.5-1.3-0.5-2.1v-0.5v-0.2c-0.5-3.9,0.8-9.1,3.7-15.6
			c3.5-7.6,5.5-12.3,5.8-14.3c0.2-0.9,0.4-3.8,0.5-8.5c0.1-4,0.6-7,1.6-9c1.5-3.2,4.2-5.7,7.9-7.6c3.7-1.9,7.5-3.1,11.2-3.5
			c11.2-1.4,19.4,1.7,24.4,9.4c1.1,1.5,2.1,3.4,3,5.6c0.9,2.2,1.7,4.1,2.2,5.8c0.5,1.7,1.2,4,2.1,7c0.9,3,1.6,5.2,2,6.5
			c0.1,0.7,0.5,1.6,1.1,2.7c0.1,0.1,0.2,0.2,0.2,0.4l0.2,0.2l2.1,4.4c1.9,3.9,2.5,7,1.9,9.4c-0.7,2.4-2.4,3.8-5.1,4.4
			c2.6,9.3,5,16.3,7.1,21.1c1.2,2.5,3.1,6,5.7,10.6c3.1,5.2,5.2,9.1,6.5,11.9C928.8,444.5,929.7,446.6,930.5,448.6z M904,391.1
			c0.7,0.6,1.2,0.9,1.6,0.9c0.4,0,0.6-0.4,0.9-1.1c0.9-2.7,0.8-5.7-0.4-9c-0.7-1.4-1.2-2.6-1.6-3.5l-1.9-6.5c-0.8-2.9-1.5-5.2-2-6.8
			c-0.5-1.6-1.2-3.4-2-5.4c-0.8-2-1.7-3.7-2.7-5.1c-4.2-6.4-11.3-9-21.2-7.8c-3.3,0.4-6.5,1.4-9.7,3c-3.2,1.7-5.4,3.7-6.5,6
			c-0.7,1.7-1.1,4.2-1.2,7.8c-0.1,5-0.3,8-0.5,9c-0.5,2.2-2.5,7.3-6.2,15c-2.4,5.2-3.5,9.3-3.5,12.2c0.4,0,0.6-0.1,0.9-0.2
			c0.2-0.2,0.6-0.7,1.1-1.4c0-0.1,0.1-0.5,0.4-1.1l0.9-1.6c0.2-0.5,0.6-1,1-1.5c0.4-0.5,0.9-1,1.3-1.3c0.7-0.6,1.4-0.9,2.1-0.9
			s1.4,0.2,2.1,0.7c0.5,0.4,1.2,1.2,2.3,2.5c0.8,0.9,1.5,1.5,1.9,1.8c0.5,0.2,1.1,0.2,1.8-0.2c0.2-0.2,0.4-0.5,0.5-0.7l0.9-1.8
			c1.2-6.5,3.4-10.7,6.5-12.7c2.2-1.5,4.4-1.5,6.5,0.2c1.3,0.8,2.8,2.6,4.4,5.3l0.2,0.2l1.8,2.1c0.2,0.4,0.7,1.1,1.5,2.1
			c0.8,1.1,1.4,1.8,1.9,2.3c0.2,0.4,0.5,0.6,0.9,0.9c0.9,0.4,1.8,0.9,2.5,1.6c0.5,0,0.9,0,1.2,0c0.5-0.1,0.8-0.3,1.1-0.5
			c0.5-0.5,0.8-1.4,1.1-2.8c0.6-2.2,1-3.6,1.2-4.1c0.5-0.9,1.1-1.6,1.8-1.9c0.7-0.5,1.6-0.6,2.7-0.5c1.8,0.2,3.1,1.1,3.9,2.7
			C903.3,389.2,903.6,390,904,391.1z M887,427c-0.1-0.7-0.4-1.8-0.7-3.2c-0.6-2.1-1.6-5.4-3-9.9l-2.5-8c-0.9-0.9-1.5-2-1.8-3.2
			l-3.5,13.3c-1.4,5-2.4,8.8-3,11.5c-0.2,0.9-0.4,1.7-0.5,2.3h0.2c2,0,4.3-0.2,6.9-0.7c2.7-0.4,5-0.8,6.7-1.4
			C886.2,427.5,886.6,427.2,887,427z"/>
		<path class="st2" d="M954.1,382.4c-1.1,1.5-2.1,2.4-3.2,2.7c-1.9,0.4-3.3-0.6-4.2-3c-0.8-2-1.1-4.8-0.7-8.5
			c0.1-1.1,0.3-2.5,0.5-4.2c0.2-1.8,0.4-3,0.4-3.7c0.1-0.7,0.2-2,0.2-3.8c0-1.8,0.1-3.3,0.2-4.3c0.4-3.7,1.4-6.5,3-8.5
			c3.5-4.4,10.9-8.3,22.1-11.9c9.3-2.9,17.5-4.7,24.6-5.3c8.5-0.7,15.4,0.1,20.7,2.5c6.3,2.7,11.1,7.7,14.5,15
			c2.6,5.5,4.2,9.4,5,11.7c1.5,5.9,0.8,10.2-2.3,12.9c-1.4,1.3-2.7,1.9-3.7,1.9h-0.9c0.1,2.1,0,4.6-0.4,7.4c-1.2,9-3.2,15.9-6,20.9
			l-4.8,8.3c-1.2,1.9-3,4.2-5.3,7c-2.4,2.8-4.8,5.1-7.3,7c-5.5,5.7-12.5,10.7-20.9,15c-0.5,0.4-1,0.5-1.6,0.5
			c0.2,3.2,0.5,7.5,0.9,12.9c0.7,7,1.1,10.9,1.1,11.9c0.1,1.8,0.2,3.1,0.4,4.1v1.6c-0.1,0.2-0.2,0.5-0.2,0.7
			c-0.1,0.6-0.3,1.1-0.5,1.6c-1.1,1.5-3,2.8-5.7,3.7c-2.2,0.8-5.7,0.9-10.3,0.4c-2.1-0.2-4-0.6-5.7-1.2c-2.4-0.8-4-2.1-4.8-3.7
			c-0.7-1.3-0.9-2.8-0.5-4.6c-0.1-0.4-0.2-0.6-0.2-0.9c-2-22.3-3-44.1-3-65.5c0-0.9,0.2-1.9,0.7-2.8c-0.2-3.1-0.6-6-1.1-8.9V390
			C954.7,387.8,954.3,385.2,954.1,382.4z M961,376c0,5.9,0.5,10.4,1.4,13.6c1.3,4.2,3.5,6.5,6.5,6.9c0.5,0.1,0.8,0.2,1.1,0.2
			c0.7-0.9,0.9-3.1,0.7-6.4c-0.4-3.2-0.5-5.1-0.5-5.7c0-2.6,0.5-4.7,1.4-6.2c0.7-1.2,1.9-2.1,3.7-2.7h0.2c0.4-0.5,0.6-1.7,0.9-3.7
			c0.4-3.7,1.3-6.4,2.8-8.1c3.2-3.4,7.9-5.5,14.2-6.4c7.9-1.2,13,1,15.2,6.5c0.6,1.7,0.6,4.1,0,7.3c-0.1,0.5-0.3,1.5-0.6,3
			c-0.3,1.5-0.5,2.7-0.6,3.5c-0.4,1.7-0.4,2.7,0,3.2c0.2,0.2,0.9,0.3,1.9,0.2c2.1-0.1,4.1-1,5.8-2.7c0.2-0.5,0.5-0.9,0.9-1.2
			c0.1-0.1,0.2-0.2,0.4-0.4c0.4-0.5,0.7-1,1.1-1.6c0.7-1.2,1.5-2.7,2.3-4.4c0.4-0.9,0.6-1.6,0.7-1.9c0.2-0.4,0.5-0.6,0.7-0.9
			c0.7-0.9,1.6-1.5,2.7-1.6c2.1-0.1,3.8,0.8,5,2.7c0.4,0.5,0.6,1.1,0.7,1.9c0.1,0,0.2,0.1,0.4,0.2l1.2,0.9c0.1,0,0.5-0.3,1.2-0.9
			c2.1-1.9,2.5-5.1,1.2-9.6c-0.6-2.1-2.1-5.8-4.6-11.2c-3.1-6.5-7.3-10.9-12.7-13.3c-4.7-2.1-11-2.8-18.9-2.1
			c-7.1,0.6-15,2.3-23.9,5.1c-10.5,3.4-17.3,7-20.4,10.6c-1.3,1.5-2.1,3.8-2.3,6.7c-0.1,0.9-0.2,2.2-0.2,3.9c0,2-0.1,3.4-0.2,4.2
			c0,0.7-0.1,1.9-0.4,3.7l-0.5,4.1c-0.4,3.2-0.2,5.5,0.4,6.9c0.1,0.4,0.2,0.6,0.4,0.7c0.4-0.2,0.8-0.6,1.2-1.2
			c0.8-1.2,1.7-2.8,2.5-4.8c0.1-0.5,0.4-0.9,0.7-1.4c0.7-0.9,1.7-1.4,2.8-1.4c0.9,0,1.8,0.4,2.5,1.1S961,375.1,961,376z
			 M980.3,385.2c-0.6,7.3-0.9,12.9-0.9,16.8c0,3.7,0.2,6.5,0.7,8.7v0.2c0.1-0.1,0.2-0.2,0.4-0.2c5.8-3.8,9.9-7.7,12.5-11.9
			c2.5-4.1,4.3-9.6,5.2-16.5c0.2-1.3,0.9-2.3,1.9-3c0-0.7,0.1-1.5,0.2-2.5c0.1-0.8,0.4-2.1,0.7-3.7c0.4-1.7,0.6-2.7,0.7-3
			c0.4-1.9,0.4-3.1,0.2-3.5c-0.7-2-3.2-2.7-7.4-2.1c-4.6,0.7-7.9,2.2-9.9,4.4c-0.6,0.5-0.9,1.8-1.1,3.9c-0.4,3.7-1.3,6.3-2.8,8
			c-0.4,0.5-0.8,0.9-1.4,1.2C980,382.9,980.4,383.9,980.3,385.2z"/>
		<path class="st2" d="M1063.6,382.4c-1.1,1.5-2.1,2.4-3.2,2.7c-1.9,0.4-3.3-0.6-4.2-3c-0.8-2-1.1-4.8-0.7-8.5
			c0.1-1.1,0.3-2.5,0.5-4.2c0.2-1.8,0.4-3,0.4-3.7c0.1-0.7,0.2-2,0.2-3.8c0-1.8,0.1-3.3,0.2-4.3c0.4-3.7,1.4-6.5,3-8.5
			c3.5-4.4,10.9-8.3,22.1-11.9c9.3-2.9,17.5-4.7,24.6-5.3c8.5-0.7,15.4,0.1,20.7,2.5c6.3,2.7,11.1,7.7,14.5,15
			c2.6,5.5,4.2,9.4,5,11.7c1.5,5.9,0.8,10.2-2.3,12.9c-1.4,1.3-2.7,1.9-3.7,1.9h-0.9c0.1,2.1,0,4.6-0.4,7.4c-1.2,9-3.2,15.9-6,20.9
			l-4.8,8.3c-1.2,1.9-3,4.2-5.3,7c-2.4,2.8-4.8,5.1-7.3,7c-5.5,5.7-12.5,10.7-20.9,15c-0.5,0.4-1,0.5-1.6,0.5
			c0.2,3.2,0.5,7.5,0.9,12.9c0.7,7,1.1,10.9,1.1,11.9c0.1,1.8,0.2,3.1,0.4,4.1v1.6c-0.1,0.2-0.2,0.5-0.2,0.7
			c-0.1,0.6-0.3,1.1-0.5,1.6c-1.1,1.5-3,2.8-5.7,3.7c-2.2,0.8-5.7,0.9-10.3,0.4c-2.1-0.2-4-0.6-5.7-1.2c-2.4-0.8-4-2.1-4.8-3.7
			c-0.7-1.3-0.9-2.8-0.5-4.6c-0.1-0.4-0.2-0.6-0.2-0.9c-2-22.3-3-44.1-3-65.5c0-0.9,0.2-1.9,0.7-2.8c-0.2-3.1-0.6-6-1.1-8.9V390
			C1064.2,387.8,1063.9,385.2,1063.6,382.4z M1070.5,376c0,5.9,0.5,10.4,1.4,13.6c1.3,4.2,3.5,6.5,6.5,6.9c0.5,0.1,0.8,0.2,1.1,0.2
			c0.7-0.9,0.9-3.1,0.7-6.4c-0.4-3.2-0.5-5.1-0.5-5.7c0-2.6,0.5-4.7,1.4-6.2c0.7-1.2,1.9-2.1,3.7-2.7h0.2c0.4-0.5,0.6-1.7,0.9-3.7
			c0.4-3.7,1.3-6.4,2.8-8.1c3.2-3.4,7.9-5.5,14.2-6.4c7.9-1.2,13,1,15.2,6.5c0.6,1.7,0.6,4.1,0,7.3c-0.1,0.5-0.3,1.5-0.6,3
			c-0.3,1.5-0.5,2.7-0.6,3.5c-0.4,1.7-0.4,2.7,0,3.2c0.2,0.2,0.9,0.3,1.9,0.2c2.1-0.1,4.1-1,5.8-2.7c0.2-0.5,0.5-0.9,0.9-1.2
			c0.1-0.1,0.2-0.2,0.4-0.4c0.4-0.5,0.7-1,1.1-1.6c0.7-1.2,1.5-2.7,2.3-4.4c0.4-0.9,0.6-1.6,0.7-1.9c0.2-0.4,0.5-0.6,0.7-0.9
			c0.7-0.9,1.6-1.5,2.7-1.6c2.1-0.1,3.8,0.8,5,2.7c0.4,0.5,0.6,1.1,0.7,1.9c0.1,0,0.2,0.1,0.4,0.2l1.2,0.9c0.1,0,0.5-0.3,1.2-0.9
			c2.1-1.9,2.5-5.1,1.2-9.6c-0.6-2.1-2.1-5.8-4.6-11.2c-3.1-6.5-7.3-10.9-12.7-13.3c-4.7-2.1-11-2.8-18.9-2.1
			c-7.1,0.6-15,2.3-23.9,5.1c-10.5,3.4-17.3,7-20.4,10.6c-1.3,1.5-2.1,3.8-2.3,6.7c-0.1,0.9-0.2,2.2-0.2,3.9c0,2-0.1,3.4-0.2,4.2
			c0,0.7-0.1,1.9-0.4,3.7l-0.5,4.1c-0.4,3.2-0.2,5.5,0.4,6.9c0.1,0.4,0.2,0.6,0.4,0.7c0.4-0.2,0.8-0.6,1.2-1.2
			c0.8-1.2,1.7-2.8,2.5-4.8c0.1-0.5,0.4-0.9,0.7-1.4c0.7-0.9,1.7-1.4,2.8-1.4c0.9,0,1.8,0.4,2.5,1.1S1070.5,375.1,1070.5,376z
			 M1089.8,385.2c-0.6,7.3-0.9,12.9-0.9,16.8c0,3.7,0.2,6.5,0.7,8.7v0.2c0.1-0.1,0.2-0.2,0.4-0.2c5.8-3.8,9.9-7.7,12.5-11.9
			c2.5-4.1,4.3-9.6,5.2-16.5c0.2-1.3,0.9-2.3,1.9-3c0-0.7,0.1-1.5,0.2-2.5c0.1-0.8,0.4-2.1,0.7-3.7c0.4-1.7,0.6-2.7,0.7-3
			c0.4-1.9,0.4-3.1,0.2-3.5c-0.7-2-3.2-2.7-7.4-2.1c-4.6,0.7-7.9,2.2-9.9,4.4c-0.6,0.5-0.9,1.8-1.1,3.9c-0.4,3.7-1.3,6.3-2.8,8
			c-0.4,0.5-0.8,0.9-1.4,1.2C1089.6,382.9,1089.9,383.9,1089.8,385.2z"/>
		<path class="st2" d="M1230.7,372.5c-0.2-1.2-0.1-3.2,0.4-6.2c0.4-2.6,0.9-5.4,1.6-8.5c0.8-3.3,1.7-6.1,2.5-8.5
			c0.9-2.8,1.8-4.7,2.7-5.7c1.4-1.5,3.8-2.7,7.1-3.5c2.8-0.7,6.1-1.1,9.7-1.1c8.3,0.1,14,1.5,17.2,4.1c4,3.3,5.3,7.3,3.9,11.9
			c-0.2,0.9-0.9,2.8-2.1,5.5c-0.9,2.1-1.5,3.8-1.8,5c-0.2,1.1-0.5,2.6-0.7,4.6c-0.1,2.2-0.3,3.8-0.5,4.8c-0.8,4-3.1,6.7-6.9,8.1
			c-0.9,0.4-1.7,0.6-2.3,0.7c-1.3,0.2-2.4,0-3.4-0.7c-0.2-0.2-0.5-0.5-0.7-0.9c-0.9,1.7-1.6,2.9-1.9,3.7c-2,4.5-4.8,11-8.2,19.5
			c-3.5,8.5-6,14.5-7.5,17.9c-0.5,1.3-1.2,3-2.3,5c-1.1,2.1-1.9,3.9-2.7,5.5s-1.2,3.1-1.6,4.5c-0.4,1.7-0.4,4.7-0.2,9
			c0.4,6.8,0.5,11,0.4,12.6c-0.1,12-4.1,18.7-12,20c-1.4,0.2-3.2,0.1-5.5-0.5c-0.9,0.1-1.9-0.1-2.8-0.5l-0.2-0.2h-0.4
			c-0.1,0-0.3-0.1-0.6-0.2c-0.3-0.1-0.7-0.2-1.2-0.4c-2.5-0.8-4.3-2.1-5.5-3.9l-0.9-2.3v-0.7c-0.1-0.2-0.2-0.6-0.2-1.1
			c0-0.8-0.1-2-0.2-3.5c-0.1-2.2-0.2-5.5-0.4-9.9l-0.4-11.9c-0.1-4-0.4-7.3-0.7-9.7c-0.5-3.3-1.4-6.8-2.7-10.5
			c-1.4-3.7-3.2-8.1-5.5-13.2c-2.3-5.1-3.9-8.7-4.9-11c-0.1-0.5-0.2-0.9-0.2-1.4c-1.1,0.9-2.3,1.3-3.8,1.1c-1.5-0.2-2.7-1.1-3.6-2.5
			c-0.8-1.5-1.4-4.2-1.7-8c-0.3-3.8-0.6-6.1-0.8-7.1c-0.6-1.3-1.2-2.6-1.9-4c-0.7-1.4-1.9-3.2-3.5-5.5c-1.6-2.3-2.6-3.7-2.9-4.3
			c-4.1-6.3-5.9-11.7-5.3-16.3c0.2-2.4,1.9-4.5,5-6.4c2.5-1.5,5.5-2.9,9.2-4.1c3.5-1.1,7-1.7,10.3-1.9c3.5-0.2,6.1,0.1,7.8,0.9
			c0.5,0.2,0.9,0.6,1.2,1.1c0.1,0.4,0.3,0.8,0.5,1.2c0.4,0.8,0.8,1.9,1.2,3.4l2.7,9.7c1.2,5.1,2.2,9.9,3.2,14.3l0.9,2.3l5.1,14.5
			l5.3,14.3v0.4c1.5-2.8,3.5-7.1,6-12.7c3.2-7.6,5.5-12.9,7.1-16.1L1230.7,372.5z M1193,392.1c0.5,0.5,0.9,1.1,1.4,1.9
			c0.7,0.8,1.3,1.2,1.8,1.2l0.2-0.2c0.6-0.1,1-0.6,1.2-1.6c0.5-1.5,0.6-3.8,0.4-6.9c0-1.1-0.3-4-0.9-8.7c-0.4-3.5-0.4-6-0.2-7.4
			c0-0.1,0.1-0.4,0.2-0.9c0-0.6,0.1-1.1,0.2-1.4c0.1-0.9,0.4-1.8,0.9-2.5c0.8-1.2,2-1.8,3.5-1.8l-1.8-6.9c-0.9-4-1.8-7.2-2.5-9.6
			c-0.5-1.3-0.8-2.3-1.1-3l-0.4-0.7c-1.3-0.4-3.2-0.5-5.8-0.4c-3,0.2-6.1,0.8-9.4,1.8c-3.4,1.1-6.2,2.3-8.3,3.7
			c-2.1,1.3-3.2,2.5-3.4,3.7c-0.5,3.8,1.1,8.4,4.6,14l2.3,3.4l2.7,3.9c0.6,0.9,1.3,2.1,2,3.5c0.8,1.4,1.3,2.7,1.7,3.9
			c0.5,1.2,0.8,3.8,1.1,8c0.2,3.2,0.7,5.3,1.4,6.4c0.6,1.2,1.3,1.3,2.1,0.4c-0.9-1.8-0.6-3.3,1.1-4.6c0.7-0.6,1.6-0.8,2.6-0.7
			C1191.6,390.8,1192.4,391.3,1193,392.1z M1260.3,380.1h0.5c0.4,0,0.8-0.1,1.4-0.4c2.7-1.1,4.4-2.9,5-5.7c0.1-0.8,0.2-2.2,0.4-4.2
			c0.2-2.2,0.5-4,0.7-5.1c0.4-1.4,1.1-3.4,2.1-5.8c1.1-2.4,1.7-4,1.9-4.8c0.9-3.2,0.1-5.9-2.7-8.1c-2.6-2.1-7.6-3.2-15-3.4
			c-3.3,0-6.3,0.3-8.8,0.9c-2.6,0.7-4.4,1.6-5.5,2.7c-0.5,0.5-1.1,1.9-1.8,4.2c-0.8,2.4-1.6,5.1-2.3,8.1c-0.7,3.1-1.2,5.8-1.6,8.3
			c-0.1,0.5-0.2,0.9-0.2,1.2c0.7-0.2,1.5-0.3,2.3-0.2c1.1,0.2,1.9,0.9,2.5,1.9c0.1,0.2,0.2,0.6,0.4,1.1c0.1,0.4,0.2,0.8,0.2,1.2v2.3
			c0,2.6,0.1,4.5,0.2,5.8c0.2,2,0.6,3.4,1.1,4.2l0.2-0.2c0.8-0.2,1.9-1.2,3.2-2.8c1.3-1.4,2.8-3.4,4.4-6l3.7-6l1.6-2.1
			c0.4-0.5,0.7-0.8,1.1-1.1c1.1-0.8,2.2-1.1,3.4-0.7c0.2,0,0.5,0.1,0.7,0.2c0.4,0,0.6,0.1,0.9,0.4c1.5,1.3,2.2,2.9,2.1,4.8
			c-0.1,1.1-0.6,2.5-1.4,4.2c-0.6,1.7-0.9,2.8-1.1,3.4C1259.7,379.2,1259.9,379.7,1260.3,380.1z"/>
		<path class="st10" d="M1371.3,453.7c-2.7,7.8-7,14.5-12.7,20c-5.8,5.5-12.9,9.1-21.2,10.6c-7.9,1.7-17.1,1.4-27.6-0.9
			c-13.6-2.8-21.7-8.4-24.2-16.8c-0.9-2.8-0.8-6.2,0.5-10.1c0.2-0.8,0.7-2.1,1.2-3.7c0.5-1.2,0.8-1.9,0.9-2.3
			c2.4-8,3.5-20.1,3.5-36.3c0-1.5,0.5-2.8,1.6-3.9c-0.2-3.7-0.4-7.1-0.4-10.3c-0.9,0.7-1.9,1.1-2.8,1.1c-2.5,0.2-4.1-1.3-5-4.6
			c-0.7-3.1-0.4-7.1,1.1-12.2c1.9-7,2.9-10.7,3-11.2c0.1-0.5,0-3.7-0.4-9.6c-0.2-4.2,0.6-7.8,2.6-10.7c1.9-2.9,5-4.2,9.3-3.8
			c0.6,0.1,3.1,0.6,7.4,1.6c2.6,0.6,4.7,0.7,6.4,0.4c1.7-0.4,5-1.3,10.1-2.8c4.4-1.4,8-2.2,10.8-2.5c10.5-0.8,18.3,1.7,23.5,7.6
			c3.7,4.1,5.6,9.4,5.8,15.8c0.4,0.4,0.5,0.7,0.5,1.1c0,0.6-0.1,1.2-0.4,1.9c0,0.2-0.1,0.5-0.2,0.7c-0.5,6.8-2.5,12.5-6,16.8
			c-1.9,2.4-4,3.9-6.2,4.6c-0.5,0.1-1,0.2-1.6,0.4c-0.4,0.2-0.8,0.5-1.2,0.7c8.5,2.2,15,6.2,19.6,11.9c4.7,5.5,7.3,12.2,7.8,19.8
			C1377.7,435.7,1375.7,444.6,1371.3,453.7z M1291.1,395.3c0.4-0.2,0.7-0.5,1.1-0.8c0.4-0.3,0.7-0.4,1.1-0.4
			c0.2-0.1,0.6-0.2,1.1-0.2h0.4c0.4-0.4,0.8-0.6,1.4-0.7c0.9-0.2,1.8-0.1,2.7,0.4c0.8,0.5,1.4,1.2,1.6,2.1c0.7,2.4,1.7,4.2,3,5.5
			c1.5,0.4,2.8,0.4,3.7,0c1.2-0.2,2.1-0.9,2.7-1.9c0.2-0.6,0.5-1.2,0.7-1.9c0.4-1.8,0.6-4.4,0.7-7.8c0.1-4.8,0.3-7.8,0.5-9
			c1.1-7.7,5.4-12.6,12.9-14.9c2.2-0.7,4.5-1,6.9-0.9c3.4,0.1,6,1.1,7.8,2.8c2,2,3.2,5,3.7,9c0.9,2.8,1.9,4.8,3,5.8
			c1.5,1.7,3.7,1.9,6.4,0.9c1.4-0.6,2.6-1.4,3.6-2.5c1-1.1,1.7-2,2.2-2.7c0.5-0.8,1.2-2.2,2.3-4.3l0.2-0.4v-0.7l0.4-1.9
			c0.1-0.2,0.2-0.5,0.2-0.7v-0.2v-0.2c-0.1-5.8-1.8-10.4-5-14c-4.4-5-11.2-7.1-20.5-6.4c-2.6,0.2-6,1-10.1,2.3
			c-5.4,1.7-8.9,2.7-10.4,3c-2.2,0.4-4.9,0.2-8-0.5c-3.8-0.8-6.1-1.3-6.9-1.4c-2.8-0.2-4.8,0.5-6,2.3c-1.4,2.1-2.1,5-1.9,8.5
			c0.4,5.9,0.5,9.3,0.4,10.3c-0.1,0.9-1.1,4.8-3,11.7c-1.3,4.4-1.7,7.8-1.1,10.4c0.1,0.6,0.3,1,0.4,1.3c0.2,0.3,0.3,0.4,0.4,0.4h0.2
			c0.2,0,0.5-0.1,0.9-0.2C1290.2,396.5,1290.4,395.8,1291.1,395.3z M1334.4,377.1c0.1-0.8,0.2-2.2,0.2-4.1c-0.1-0.2-0.2-0.4-0.4-0.5
			c-0.5-0.5-1.5-0.7-3-0.7c-1.5-0.1-3.1,0.1-4.6,0.5c-2.8,0.8-4.8,2-5.9,3.5c-1.1,1.5-1.9,3.4-2.2,5.8c-0.1,1.2-0.2,3.9-0.4,8.1v2.3
			c5.2-0.7,10.3-5.3,15.2-13.8C1333.6,377.7,1334,377.3,1334.4,377.1z M1322.6,427.7l-3.2,2.1c0,2.1,0.4,7.4,1.1,15.9
			c0.1,1.4,0.2,4.2,0.2,8.5v0.4c1.7-0.2,4-0.8,7.1-1.8c7.4-2.1,12.9-5.2,16.5-9.4c2.1-2.4,3.7-5.5,4.8-9.6c0-0.7-0.1-1.5-0.2-2.3
			c-0.2-3.7-1.4-6-3.4-7.1c-1.9-1.1-4.9-1.3-9-0.7C1332.5,424.3,1327.9,425.6,1322.6,427.7z"/>
		<path class="st10" d="M1396.9,388.6c-1.1,0.7-2.2,0.8-3.5,0.2c-0.8-0.4-1.5-1.1-1.9-2.3c-0.2-0.7-0.4-1.7-0.4-2.8
			c-0.1-1.7-0.1-3.9,0.2-6.7c0.2-1.4,0.5-3.7,0.9-6.9c0.4-2.4,0.5-3.8,0.5-4.4c0-2.4-0.2-6.1-0.7-11.2c-0.2-3.5-0.1-6.1,0.4-7.6
			c0.7-2.4,2.5-4.1,5.5-5.3c2.5-1.2,6.6-2.3,12.4-3.4c0.2,0,1.3-0.2,3.3-0.6c1.9-0.4,3.3-0.7,4.2-0.8c0.8-0.1,2-0.1,3.6-0.1
			c1.6,0.1,3,0.3,4.2,0.8c3.2,1.1,5.1,2.7,5.8,5c0.2,0.5,0.4,1.3,0.4,2.5c0,0.8-0.1,2-0.2,3.5c-0.1,2.1-0.4,5.5-0.7,10.1
			c-0.9,10.1-1.4,16.1-1.2,17.9c0,0.7,0.8,3.7,2.3,8.9c1.3,4.7,1.5,8.1,0.5,10.1c-0.6,1.3-1.5,2.1-2.7,2.3c-0.5,0.1-0.9,0.2-1.4,0.2
			c0.1,0.5,0.3,1.8,0.5,3.9c0.1,0.8,0.1,8.3,0,22.3c-0.1,5-0.1,9,0.2,12c0.2,3.3,0.6,5.4,1.2,6.2c0.2,0.4,0.8,0.5,1.6,0.4
			c1.5-0.2,3.7-1.1,6.5-2.5l3.9-2.1c1.8-0.8,2.9-1.4,3.5-1.8c3.2-1.7,5.6-2.4,7.3-2.3c3.2,0.1,6.1,2.2,8.8,6.4
			c0.8,1.1,1.7,2.4,2.5,4.1c1.1,1.9,1.7,3,1.8,3.2c1.3,2.1,2.3,4,3,5.7c1.3,3.1,1.8,5.7,1.4,8c-0.8,4.4-4.1,6.7-9.7,6.9
			c-1.2,0.1-2.9,0.1-5.1,0c-1.7-0.1-2.7-0.1-3.2,0c-6.7,0.9-14,2.7-21.8,5.1c-1.1,0.4-3,1.2-5.7,2.5c-2.8,1.3-5.1,2.2-6.7,2.7
			c-3.1,0.7-5.8,0.7-8.1,0c-3-0.9-5.4-2.9-7.4-6c-1.9-2.6-3-4.7-3.4-6.4c-0.4-0.7-0.5-1.5-0.5-2.5c0-7.7-0.1-19.1-0.4-34.4
			c-0.3-15.3-0.4-26.8-0.4-34.4c0-0.8,0.2-1.7,0.5-2.5c-0.1-0.2-0.2-0.4-0.4-0.5C1397.8,391,1397.4,390,1396.9,388.6z M1405.9,386.6
			c0.2-0.2,0.7-0.8,1.4-1.8l0.2-0.4c0-0.4,0.1-1.3,0.2-2.8c0.4-2.8,0.7-4.8,1.1-5.8c0-0.1,0.1-0.4,0.2-0.7c0.2-0.6,0.4-1.1,0.5-1.4
			c0.2-0.8,0.6-1.5,1.2-2.1c1.3-1.3,2.8-1.7,4.4-1.1c1.2,0.5,2.1,1.4,2.7,2.8c0.4,0.6,0.6,1.4,0.7,2.3c0.4,1.4,0.6,3.2,0.7,5.5
			c0.1,0.7,0.2,2.5,0.4,5.5c0.1,1.5,0.2,2.4,0.2,2.7c0.2,0.8,0.8,2.2,1.6,4.1l0.7-0.4c0.8-0.5,1.7-0.6,2.7-0.5
			c0.4,0.1,0.9,0.4,1.8,0.9c0.7,0.4,1.2,0.6,1.6,0.7c0.4,0.1,0.6,0.2,0.7,0.2c0.1,0,0.2-0.1,0.4-0.4c0.6-1.3,0.3-3.9-0.9-7.8
			c-1.5-5.4-2.3-8.7-2.3-9.7c-0.1-1.8,0.3-7.8,1.2-18.2c0.4-4.5,0.6-7.8,0.7-9.9c0.1-1.4,0.2-2.5,0.2-3.4v-1.4
			c-0.5-1.2-1.7-2.1-3.7-2.8c-0.9-0.2-2-0.4-3.3-0.4c-1.2-0.1-2.2,0-2.9,0.1c-0.7,0.1-2,0.4-3.8,0.7c-1.8,0.4-3,0.6-3.5,0.7
			c-5.5,0.9-9.4,1.9-11.7,3c-1.9,0.8-3.1,1.9-3.5,3.2c-0.4,1.1-0.4,3.2-0.2,6.4c0.5,5.1,0.7,8.9,0.7,11.3c0,0.7-0.2,2.3-0.5,4.8
			c-0.5,3.4-0.8,5.7-0.9,6.9c-0.2,2.7-0.3,4.8-0.2,6.2c0,0.8,0.1,1.5,0.2,1.9c0.1,0,0.2,0.1,0.2,0.2l0.5-0.9l0.5-1.1
			c0.2-0.4,0.4-0.7,0.5-1.1c0.7-1.2,1.5-1.8,2.5-1.9c1.7-0.2,3.1,0.4,4.2,1.9c0.4,0.5,0.7,1.1,1.1,1.8c0.6,0.8,0.9,1.3,0.9,1.4
			C1405.5,386.1,1405.7,386.4,1405.9,386.6z"/>
		<path class="st10" d="M1485.2,401c-0.9,0.6-2,0.7-3.2,0.2c-1.5-0.5-2.6-1.6-3.2-3.4c-0.4-1.3-0.5-2.9-0.5-5
			c0.1-3.3,0.9-7.6,2.3-12.9c1.2-4.2,2.6-8.4,4.2-12.6c1.6-4.1,2.8-6.8,3.6-8.1c5.9-8.7,13.1-15.5,21.6-20.2
			c6.5-3.5,13-5.8,19.6-6.6c6.6-0.9,13.1-0.1,19.5,2.5c6.4,2.5,11.7,6.8,15.9,12.8c3.5,5,5.9,10.3,7.1,16.1c0.8,3.8,0.5,6.6-0.9,8.5
			c-0.7,1.1-1.7,1.8-3,2.1c0.8,2,1.5,4.6,2.1,7.8c1.1,6.3,1.6,12.3,1.6,18.2c0,5.9-0.3,11.8-0.9,17.8c-0.6,6-1.6,12.4-3.1,19.2
			c-1.5,6.8-3.7,13.2-6.7,19.2c-3,6-6.7,10.8-11.1,14.4c-4.2,3.7-8.9,6.1-14.1,7.3c-5.1,1.2-10.4,1-15.8-0.6
			c-14.5-4.5-24.5-15.9-29.9-34.2C1487.1,432.5,1485.4,418.3,1485.2,401z M1552,380.4h0.2c0.2-0.5,0.4-1.1,0.5-1.9l1.2-4.4
			c0.8-2.4,1.9-4,3.4-5c2-1.3,4-1.5,6-0.7c1.2,0.5,2.2,1.4,3.2,2.7c0.9,0,1.6-0.3,1.9-0.9c0.7-1.1,0.8-2.9,0.4-5.7
			c-1.2-5.2-3.4-10.1-6.5-14.7c-3.8-5.4-8.5-9.3-14.2-11.6c-5.7-2.3-11.7-3.1-17.9-2.3c-6.2,0.8-12.3,2.9-18.3,6.3
			c-8,4.4-14.9,10.7-20.5,19.1c-0.6,0.9-1.7,3.4-3.2,7.4c-1.5,4-2.8,8.1-3.9,12.2c-1.4,5-2.2,9-2.3,12c0,1.7,0.1,2.9,0.4,3.7
			c0.2,0.7,0.5,1.1,0.9,1.2c0.2,0,0.4-0.1,0.5-0.2c0.4-0.4,0.7-1,1.1-1.9c0.1-0.5,0.3-1,0.5-1.7c0.2-0.6,0.4-1.1,0.5-1.3
			c0.2-0.6,0.4-1.1,0.5-1.4c0.4-0.6,0.8-1,1.4-1.2c1.1-0.5,2-0.4,2.8,0.2c0.7,0.4,1.2,1,1.6,1.9c0.4,0.7,0.7,2.3,1.1,4.8
			c0.5,2.2,0.9,3.8,1.2,4.8c0.5,1.2,0.9,1.9,1.4,2.1c0.4,0,0.6,0.1,0.9,0.2c0.6-1.3,1.2-2.9,1.8-5l3.7-14v-0.4
			c0-0.2,0.1-0.5,0.2-0.7c0.6-2.4,1.1-4.1,1.4-5.1l0.9-2.3c0.7-1.4,1.7-2.2,3-2.5c2.2-0.4,4,0.2,5.3,1.8c0.4-0.1,0.6-0.4,0.9-0.7
			c0.9-1.1,2.4-3.7,4.4-7.8c2.1-4.4,4-7.4,5.5-9c2.7-3.2,5.8-4.4,9.2-3.5c4.7,1.3,8,5.2,9.9,11.7c1.8,5.8,2.7,8.9,2.8,9.4
			c0.7-0.4,1.4-0.5,2.1-0.5c1.1,0,1.9,0.4,2.7,1.2c0.4,0.4,0.6,0.7,0.7,1.1c0.1,0.4,0.2,0.8,0.4,1.2
			C1551.7,379.4,1551.8,379.9,1552,380.4z M1543.6,379.2c-0.5-0.7-0.9-1.6-1.4-2.7c-0.5-1.1-0.8-2.1-1.1-2.9
			c-0.2-0.8-0.5-1.9-0.8-3.2c-0.3-1.3-0.6-2.2-0.8-2.7c-0.7-2.6-1.6-4.7-2.7-6.2c-1.1-1.5-2.7-2.5-4.9-3c-1.9-0.6-3.7,0.2-5.5,2.3
			c-1.3,1.4-3,4.2-5,8.3c-2,4.1-3.5,6.8-4.6,8.1c0.4,0.2,0.6,0.5,0.9,0.7c1.8,1.7,1.9,3.7,0.4,6.2c-0.4,0.6-0.6,1-0.9,1.2
			c-1.3,3.9-2.2,7.8-2.8,11.9c-1.5,9.8-1.5,19.1,0.2,27.8c1.1,6.4,3.5,12.7,7.3,18.9c4.1,6.8,8,9.4,11.7,7.8
			c2.1-0.8,4.1-3.3,5.8-7.4c1.7-3.8,3-9,4.1-15.6c1.7-9.9,2.5-20.1,2.5-30.6c0-1.8-0.1-4.8-0.4-9c-0.1-0.7-0.2-1.4-0.2-2.1
			c0-0.9-0.1-1.8-0.2-2.7l-0.4-0.7c-0.8-1.2-1.2-2.4-1.2-3.5V379.2z"/>
		<path class="st10" d="M1601.4,403.5c-0.4,0.1-0.8,0.1-1.2,0c-0.8-0.2-1.5-0.9-2.1-2.1c-0.5-0.7-0.8-1.7-1.1-2.8
			c-0.6-2-1-4.3-1.2-6.9c-0.1-2.6-0.1-4.5,0.2-5.8c0.4-1.2,0.9-2.5,1.5-4c0.6-1.5,1.2-2.7,1.7-3.6l2.3-4.1c0.9-1.7,1.5-2.8,1.8-3.4
			l4.8-8.8c1.2-2,2.8-4.4,4.8-7.1c2-2.7,4-5,6-6.7c6.8-6.3,15.7-8.7,26.5-7.4c6,0.7,10.3,2.2,12.9,4.6c2.2,2,4.6,5.7,7.1,11.2
			c2.5,5.3,4.4,10.9,5.7,16.6c1.5,6.7,2,12.3,1.4,16.6c-0.8,5.8-3.2,9.4-7.1,11c-2.4,0.9-5.7,0.9-9.9-0.2c-4.1-1.2-7.1-4.3-9-9.4
			c-0.9-2.9-1.7-7.4-2.3-13.5c-0.4-5.5-0.8-9-1.4-10.3c-0.4-0.7-0.7-1.1-0.9-1.1c-0.6-0.2-1.5,0.1-2.7,0.9c-0.8,0.5-1.8,2.1-3,5
			c-1.2,2.5-2.4,5.8-3.5,10.1l-3.5,13.3c0.1,0.6,0.2,1.4,0.2,2.3c0,1.7-0.2,3.8-0.7,6.5c-0.1,1.2-0.4,3.5-0.9,6.9
			c-0.5,2.5-0.7,4-0.7,4.6c-0.7,11.1-0.5,19.8,0.5,26c1.8,10,5.7,15.5,11.9,16.5c1.9,0.4,3.3,0.2,4.2-0.5l0.7-1.1
			c1.2-1.9,2.3-4.4,3.4-7.4c0.1-0.8,0.6-4.2,1.6-10.3c0.6-4.6,1.4-7.9,2.5-9.9c1.4-2.4,3.2-4,5.4-5c2.2-0.9,4.5-1.1,7-0.5
			c4.6,0.9,8,3.5,10.1,7.8c3.8,7.4,3.7,16-0.4,25.8c-3.7,9-9,15.5-16.1,19.5c-5.4,3.1-12.9,4.6-22.5,4.6c-6.1,0-10.9-1.1-14.3-3.2
			c-10.6-6.8-16.9-18.8-18.9-35.8c-0.6-4-0.9-8.2-1-12.6c-0.1-4.4,0-9.5,0.2-15.3S1601.4,405,1601.4,403.5z M1608.1,397.1l1.9,4.1
			l0.9,1.9c0.4,0.1,0.8,0.2,1.2,0.2c1.9,0.1,3.2-0.2,3.9-1.1c0.6-0.8,1-2.1,1.2-3.9c0-0.2,0.1-2.1,0.2-5.7c0-2.5,0.3-4.4,0.9-5.7
			c0.4-0.7,0.7-1.2,1.1-1.6c0.7-0.8,1.5-1.1,2.5-0.7c0.5,0.2,0.9,0.7,1.2,1.4l0.5,1.1c0.1,0.2,0.2,0.5,0.2,0.7
			c0.1-0.1,0.2-0.3,0.4-0.5c0.2-0.6,0.5-1.4,0.7-2.3c0.1-0.4,0.3-0.9,0.4-1.6s0.4-1.3,0.6-1.8l0.4-1.4c2.1-5.4,5.5-10.7,10.1-15.9
			c0.4-0.4,0.8-0.5,1.2-0.5c1.9-1.1,3.5-1.4,4.8-1.1c1.5,0.4,2.7,1.4,3.4,3.2c0.7,1.7,1.3,5.4,1.8,11.3c0.5,5.8,1.2,10,2.1,12.6
			c1.4,3.9,3.7,6.3,6.7,7.1c3.4,0.9,5.9,1.1,7.4,0.5c2.7-1.1,4.4-3.8,5-8.1c0.6-4.1,0.2-9.3-1.2-15.4c-1.3-5.7-3.1-11-5.5-16.1
			c-2.2-5-4.4-8.3-6.4-10.1c-2-1.8-5.6-2.9-10.8-3.5c-9.9-1.2-17.9,0.9-23.9,6.4c-2.6,2.4-4.9,5.2-7,8.4c-2.1,3.2-4.6,7.8-7.7,13.5
			l-1.9,3.4l-2.1,3.7c-0.5,0.9-1,2.1-1.6,3.5c-0.6,1.4-1,2.6-1.2,3.8c-0.2,0.8-0.3,2.4-0.2,4.6c0.2,2.4,0.6,4.4,1.1,6.2
			c0.2,0.8,0.5,1.5,0.7,1.9c0.1-0.2,0.2-0.5,0.4-0.9c-0.1-1.7,0.6-2.8,2.1-3.4c0.8-0.5,1.7-0.5,2.7-0.2
			C1607.1,395.5,1607.7,396.1,1608.1,397.1z"/>
		<path class="st10" d="M1699.4,393.7c-0.4,0.1-0.7,0.1-1.1,0c-1.3-0.1-2.5-0.9-3.7-2.3c-0.4-0.4-0.6-1-0.7-1.9V387
			c-0.1-1.7-0.1-3.8,0-6.5c0-0.8,0.1-3.1,0.2-6.7c0.1-2.2,0.2-3.6,0.2-4.1c0-1.1-0.4-2.9-1.2-5.5c-1.2-3.7-1.9-5.9-2.1-6.7
			c-0.6-2.7-0.7-5-0.4-6.7c0.6-2.5,2.1-4.4,4.6-5.8c2-1.1,4.3-1.8,6.8-2.3c2.5-0.5,4.4-0.7,5.7-0.8c1.2-0.1,3.5-0.1,6.8-0.1
			c5.8,0,10,1.5,12.7,4.4c2.2,2.5,3.5,6.1,3.7,10.8c0.1,2.8-0.2,7.1-0.9,12.7c-0.8,5.8-1.2,9.7-1.2,11.9c0,0.6-0.2,1.1-0.7,1.4
			c-0.4,4.2-0.5,7-0.5,8.1c-0.2,4.7-0.2,8.2,0.2,10.4v0.4c0.5-0.6,1-1.4,1.6-2.3c1.4-2.1,3.3-5.5,5.7-10.1l5.1-9.6
			c0.5-1.9,1.5-4.1,3.2-6.5c2.7-3.9,4.3-6.4,4.8-7.4c0.2-0.6,1-2.7,2.2-6.2c1.2-3.5,2.4-6.4,3.4-8.7c1-2.2,2.2-4.2,3.5-5.8
			c2.5-3.3,5.4-5.3,8.9-6c3.8-0.8,8.2,0.1,13.3,2.7c2.6,1.4,5,3.3,7.1,5.7c2.8,3.2,4.1,6.1,3.7,8.8c-0.4,2.4-2.1,4.4-5.3,6.2
			c-2.8,1.4-4.5,2.5-5,3.4c-0.1,0.1-0.3,0.4-0.5,0.9l-0.9,2.5c-0.5,0.9-0.9,1.9-1.4,2.8c-1.9,4.2-3.5,7.6-4.8,9.9
			c-0.9,1.8-1.8,3.1-2.7,4.1c-1.2,1.4-2.3,2.1-3.4,2.1c-1.2,0.1-2.1-0.5-2.8-1.8l-2.8,5.5c-0.7,1.2-2.2,3.6-4.6,7.3
			c-2.6,3.9-4.5,7-5.8,9.2c-2.1,3.5-3.6,6.5-4.4,8.8c-0.8,2.2-1.1,3.7-0.9,4.4c0.8,1.8,3.7,4.3,8.7,7.6c4.2,2.8,9.9,6.1,16.8,9.9
			l16.5,8.5l5.3,2.7c0.8,0.4,1.4,0.6,1.8,0.9c0.2,0.2,0.4,0.4,0.6,0.5c0.2,0.1,0.3,0.2,0.4,0.4c0.5,0.5,0.8,0.9,1.1,1.4
			c0.8,2.5,0.2,5.4-1.9,8.9c-1.7,2.8-3.9,5.5-6.7,8.1c-3,2.7-5.9,4.7-8.9,6c-3.9,1.8-7.3,1.9-10.3,0.4c-4.1-2.4-10.7-8.7-19.8-18.9
			c-8.7-9.8-14.6-15.9-17.7-18.4c0.4,1.8,1.3,5.7,2.8,11.7c1.5,5.8,2.5,9.9,2.8,12.2c0.4,2.1,0.5,3.9,0.4,5.3c-0.1,2.4-0.9,4-2.5,5
			c-0.5,0.4-1.1,0.6-1.8,0.7c-0.2,0.1-0.6,0.2-1.1,0.2c-0.8,0.1-1.8,0.2-3,0.4c-2.4,0.1-5.1,0.2-8.3,0.2h-8c-1.2,0-2.1-0.1-2.8-0.2
			c-0.5,0-0.8-0.1-1.1-0.2c-0.4,0-0.6-0.1-0.7-0.2c-0.8-0.2-1.5-0.6-1.9-1.2c-0.5-0.6-0.8-1.5-1.1-2.7c-0.2-0.7-0.4-1.7-0.5-3
			c-0.2-1.7-0.5-3.8-0.9-6.5c-0.2-0.8-0.4-1.7-0.5-2.6c-0.1-0.9-0.1-1.8,0.2-2.7c-0.5-6-1-13.3-1.6-21.9
			C1700.2,417.1,1699.6,403.7,1699.4,393.7z M1697.6,389.5c0.5,0.5,0.8,0.8,1.1,0.9c0.2,0,0.6-0.2,1-0.5c0.4-0.4,0.9-0.8,1.3-1.4
			c-0.5-3.9-0.6-6.5-0.4-8c0.5-2.4,1.1-4.1,1.9-5.3c2.7-3.3,5.4-4.2,8.1-2.7c1.7,0.9,2.9,2.9,3.7,5.8c0.2,0.7,0.5,1.7,0.7,2.8
			l0.4-1.2c1.2-3.1,2.1-5.2,2.7-6.4c0.7-1.3,1.5-2.2,2.3-2.8c1.7-1.2,3.4-1.4,5.1-0.5c0.2,0,0.5,0.1,0.7,0.4l0.2-1.4
			c0.7-5.5,1-9.6,0.9-12c-0.1-3.9-1.1-6.7-2.8-8.5c-2-2.2-5.4-3.4-10.1-3.4c-3.2,0-5.4,0-6.6,0.1c-1.2,0.1-3,0.3-5.1,0.7
			c-2.2,0.4-4.1,1.1-5.8,2c-1.5,0.8-2.5,1.9-2.8,3.4c-0.4,1.3-0.2,3.1,0.4,5.3c0.1,0.7,0.8,2.8,1.9,6.4c0.8,2.7,1.3,4.9,1.4,6.5
			c0,0.5-0.1,1.9-0.2,4.2c-0.1,3.7-0.2,5.9-0.2,6.7c-0.1,2.7-0.1,4.8,0,6.2v2.1C1697.5,389.2,1697.5,389.4,1697.6,389.5z
			 M1766.3,384.3l0.5-0.5c0.6-0.8,1.3-2,2.1-3.5c1.4-2.2,3-5.5,4.8-9.7c1.9-4.1,2.8-6.3,2.8-6.4c0.8-1.4,2.9-3,6.4-4.8
			c2.2-1.2,3.4-2.3,3.5-3.4c0.2-1.8-0.7-3.8-2.8-6.2c-1.9-2-4-3.6-6.2-4.8c-4.2-2.2-7.8-3.1-10.8-2.5c-2.5,0.6-4.7,2.2-6.7,4.8
			c-1.2,1.5-2.2,3.3-3.1,5.3c-0.9,2-1.9,4.7-3.2,8.1c-1.2,3.4-2,5.6-2.4,6.5c-0.4,0.9-0.8,1.9-1.4,2.9h0.4c2,0,3.4,0.9,4.2,2.7
			c0.6,1.3,0.6,3.3,0.2,6c-0.1,0.6-0.3,1.4-0.6,2.6c-0.3,1.1-0.4,1.9-0.4,2.2c0.1-0.2,0.3-0.5,0.5-0.7c0.4-0.5,0.9-1.1,1.7-1.9
			c0.8-0.8,1.3-1.4,1.5-1.8c0.8-0.8,1.5-1.4,2.1-1.8c1.3-0.9,2.6-1.3,3.9-1.1c1.3,0.2,2.2,1,2.7,2.3c0.1,0.5,0.2,0.9,0.2,1.4
			c0,0.2-0.1,0.5-0.2,0.7v0.4c0,0.1-0.1,0.2-0.2,0.2C1765.9,382.6,1766.1,383.6,1766.3,384.3z"/>
		<path class="st10" d="M1813.7,399.2c-0.2,0.2-0.5,0.4-0.7,0.5c-0.7,0.4-1.5,0.4-2.3,0.2c-0.7-0.2-1.4-0.7-1.9-1.4
			c-1.2-1.4-1.8-3.8-1.9-7.1c0-0.9,0.1-2.1,0.2-3.5v-3c0-13.5,4.4-24.7,13.3-33.8c8.9-9.1,20.1-13.9,33.8-14.3
			c10.7-0.4,19.2,2.1,25.5,7.4c5.4,4.6,10,12.2,13.6,22.8c0.1,0.2,0.4,0.8,0.7,1.8c0.4,0.9,0.6,1.6,0.7,1.9l0.5,2.3
			c0.4,1.1,0.5,1.8,0.5,2.3v2.3c-0.5,3.5-1.8,5.5-3.9,5.8h-0.5c0.2,1.2,0.4,2.4,0.4,3.7c0,4.2-1.6,7.4-4.8,9.4
			c-2.5,1.5-5.5,2-9.2,1.4c-3.3-0.6-6.4-1.9-9.3-3.9c-2.9-2-4.9-4.5-6.1-7.4c-1.8-1.1-3-2.5-3.5-4.4c-0.5-1.5-0.6-3.6-0.4-6.2
			c0.2-2.1,0.3-3.4,0.2-3.9c0-0.5-0.2-0.8-0.5-0.9c-0.1-0.1-0.6-0.1-1.4,0c-1.1,0.1-2.3,0.4-3.7,0.9c-3.1,0.8-5.2,1.7-6.4,2.7
			l-0.7,1.9c-0.9,3-2.5,4.7-4.6,5.1l-0.2,0.2c-0.4,4.2,0.1,7.7,1.4,10.4c1.3,2.5,3.5,4.6,6.7,6.4c1.7,0.9,5.4,2.6,11.2,5
			c5.7,2.2,10,4.5,12.9,6.7c6.5,4.4,11.6,11.1,15.4,20.2c2.9,7.4,3.7,14.9,2.1,22.3c-2.1,9.9-6.7,17.1-13.6,21.4
			c-7.1,4.4-15.1,6-24.1,4.8c-8.4-1.1-16.2-4.3-23.5-9.7c-7.3-5.4-12.5-12.2-15.6-20.4l-1.2-3.7l-0.5-1.4c-0.2-0.5-0.4-0.9-0.5-1.4
			c-0.1-0.4-0.2-0.6-0.2-0.9c0-0.2-0.1-0.4-0.2-0.5v-1.2c0.4-3.1,1.7-5.2,4.1-6.5c2.4-1.3,5-1.9,7.8-1.9c5.5-0.2,10,0.8,13.3,3.2
			c1.8,1.3,3.5,3.7,5.1,7.3l1.6,4.1c0.6,1.4,1.1,2.6,1.6,3.5c1.3,2.4,2.7,3.9,4.2,4.6c2,0.9,4.7,0.9,8.1,0c1.3-0.4,2.6-1.6,3.8-3.6
			c1.2-2.1,2-4.1,2.4-6.1c0.4-2.2-1.2-4.7-4.8-7.4c-2-1.7-7.4-4.8-16.1-9.6l-8.8-5.3c-2.5-1.4-5.2-3.3-8.2-5.8c-3-2.4-5.5-5-7.4-7.9
			C1816,405.6,1814.6,402.5,1813.7,399.2z M1853.4,361.9c0.5,0.1,1.3,0.2,2.5,0.4c1.8,0.1,3.1,0.4,3.9,0.9c1.2,0.5,2,1.3,2.5,2.5
			c1.9,1.3,3,3.1,3.4,5.5c0.1,1.1,0.1,3-0.2,5.7c0,0.2-0.1,0.5-0.2,0.9c0.6,1.1,1.4,1.7,2.3,1.8c0.9,0.1,2.2-0.2,3.7-0.9
			c0.7-0.4,1.4-0.8,2.1-1.4c0.5-0.6,0.8-1.1,1.1-1.4c1.4-1.7,2.9-2.7,4.6-3c0.8-0.1,1.8,0.1,2.8,0.5c0.7,0.4,1.5,0.9,2.3,1.6
			c0.4,0.2,1.1,0.9,2.3,1.9c0.9,0.8,1.7,1.4,2.1,1.8c1.3,1.1,2.2,1.5,2.7,1.4c0.4,0,0.6-0.9,0.9-2.7c0.2-1.3-0.5-4.4-2.1-9.2
			c-3.5-9.9-7.8-17-12.7-21.2c-5.5-4.7-13.3-6.9-23.2-6.5c-12.6,0.5-23,4.9-31.2,13.3c-8.2,8.4-12.3,18.8-12.3,31.3v3
			c-0.1,1.4-0.2,2.6-0.2,3.5c0.1,2.5,0.5,4.1,1.2,5c0.2-0.2,0.5-0.6,0.9-1.2c0.9-1.4,1.7-2.4,2.1-2.8c1.2-1.3,2.5-1.7,4-1.3
			c1.5,0.4,2.8,1.3,4,2.7l1.4,1.8c0.5,0.7,0.8,1.2,0.9,1.4c0.7,0.8,1.2,1.3,1.6,1.4c0.6,0,1.4-0.4,2.3-1.1c0-0.1,0.1-0.2,0.2-0.4
			c0.1-1.3,0.2-2.9,0.2-5c0-1.3-0.1-3.2-0.2-5.8c-0.1-2.6-0.2-4.4-0.2-5.5v-2.3v-0.2c-0.5-4-0.4-6.9,0.4-8.7
			c0.9-2.2,2.3-3.4,4.1-3.4c1.1,0,2.4,0.6,3.9,1.8c1.4,0.9,2.3,1.5,2.7,1.6c0.4,0.1,0.6,0.1,0.7-0.2c0.4-0.2,0.6-0.9,0.9-1.9
			c0-0.2,0.1-0.5,0.2-0.9c0-2.5,0.4-4.4,1.1-5.8c0.8-1.7,2.1-2.6,3.7-2.8C1848.7,357.7,1851,359,1853.4,361.9z"/>
	</g>
	<path class="st11" d="M742.9,392.3c0.6,2.1,1.5,3.4,2.8,3.9c0.9,0.4,1.9-0.2,2.8-1.6c2.2-3.4,3.3-7.3,3.2-11.5
		c0-0.6-0.1-1.4-0.2-2.3c-0.1-1.1-0.2-1.8-0.2-2.1c0-1.1,0.2-1.9,0.5-2.7c0.7-1.5,1.9-2.4,3.5-2.7c1.4-0.1,2.6,0.3,3.5,1.2
		c0.1-3.4,0.3-6.1,0.5-8.1c0.2-1.5,0.8-3.4,1.6-5.5c1.1-2.2,1.7-3.8,1.8-4.6c0.6-2.6,0.3-5.5-0.9-8.8c-0.6-1.4-2.2-2.4-4.8-2.8
		c-2.7-0.5-6-0.5-9.9,0c-3.8,0.6-7.2,1.5-10.3,2.7c-2.9,1.2-4.7,2.4-5.3,3.5c-0.4,0.6-0.4,1.8-0.2,3.5c0.1,0.6,0.3,1.4,0.5,2.5
		c0.2,1.1,0.4,1.8,0.5,2.1c0.4,2.5,0.6,5.1,0.9,8c0.2,2.8,0.4,5,0.4,6.4c0.1,1.4,0.1,4.1,0,8c-0.1,3.9-0.1,6.2-0.1,6.9
		c0,0.4,0,0.9-0.1,1.6c-0.1,0.7-0.1,1.2-0.1,1.4c0,0.9,0.1,1.7,0.4,2.1c0.4-0.4,0.7-0.6,1.1-0.9l0.7-0.9c0.6-0.6,1.1-1,1.4-1.2
		c0.8-0.6,1.7-0.9,2.5-0.9c0.2,0.1,0.5,0.2,0.9,0.4C741.9,390.2,742.7,391,742.9,392.3z"/>
	<path class="st11" d="M791.2,378.1c1.5-0.2,2.7-0.8,3.5-1.8c0.8-0.9,1.5-2.3,2.2-4.1c0.8-2.5,1.5-4,1.9-4.6v-0.4
		c0.2-0.5,0.5-0.9,0.9-1.2c1.1-1.2,2.4-1.9,3.9-2.3c1.1-0.2,1.8,0.2,2.1,1.4v0.9c0.6,0.6,1.1,1.3,1.4,2.1c0.2,0.6,0.4,1.3,0.5,2.1
		c0.4-0.2,0.7-0.6,1.1-1.2c1.8-2.7,2.7-6.9,2.7-12.6c0.1-5.8-0.7-10-2.5-12.6c-0.2-0.4-0.8-0.7-1.6-1.1c-0.9-0.4-2.2-0.7-3.7-1.1
		c-3.1-0.6-6.7-0.9-10.8-1.1c-4.1-0.1-7.7,0.1-10.8,0.7c-1.4,0.2-2.6,0.6-3.5,1.1c-0.6,0.2-1,0.5-1.2,0.7v1.2c0,1.1,0.1,2.5,0.4,4.2
		c0.2,3.5,0.6,7.7,1.1,12.4c0.2,1.8,0.4,3.4,0.5,5c0.6-1.1,1.2-1.8,1.9-2.3c0.6-0.5,1.2-0.6,1.8-0.5c0.6,0,1.2,0.2,1.8,0.7
		c0.5,0.5,1,1.3,1.6,2.5c0.4,0.7,0.8,1.8,1.2,3.2l2.5,6.4c0.4,0.9,0.7,1.6,1.1,1.9L791.2,378.1z"/>
	<path class="st11" d="M904,391.1c0.7,0.6,1.2,0.9,1.6,0.9c0.4,0,0.6-0.4,0.9-1.1c0.9-2.7,0.8-5.7-0.4-9c-0.7-1.4-1.2-2.6-1.6-3.5
		l-1.9-6.5c-0.8-2.9-1.5-5.2-2-6.8c-0.5-1.6-1.2-3.4-2-5.4c-0.8-2-1.7-3.7-2.7-5.1c-4.2-6.4-11.3-9-21.2-7.8c-3.3,0.4-6.5,1.4-9.7,3
		c-3.2,1.7-5.4,3.7-6.5,6c-0.7,1.7-1.1,4.2-1.2,7.8c-0.1,5-0.3,8-0.5,9c-0.5,2.2-2.5,7.3-6.2,15c-2.4,5.2-3.5,9.3-3.5,12.2
		c0.4,0,0.6-0.1,0.9-0.2c0.2-0.2,0.6-0.7,1.1-1.4c0-0.1,0.1-0.5,0.4-1.1l0.9-1.6c0.2-0.5,0.6-1,1-1.5c0.4-0.5,0.9-1,1.3-1.3
		c0.7-0.6,1.4-0.9,2.1-0.9s1.4,0.2,2.1,0.7c0.5,0.4,1.2,1.2,2.3,2.5c0.8,0.9,1.5,1.5,1.9,1.8c0.5,0.2,1.1,0.2,1.8-0.2
		c0.2-0.2,0.4-0.5,0.5-0.7l0.9-1.8c1.2-6.5,3.4-10.7,6.5-12.7c2.2-1.5,4.4-1.5,6.5,0.2c1.3,0.8,2.8,2.6,4.4,5.3l0.2,0.2l1.8,2.1
		c0.2,0.4,0.7,1.1,1.5,2.1c0.8,1.1,1.4,1.8,1.9,2.3c0.2,0.4,0.5,0.6,0.9,0.9c0.9,0.4,1.8,0.9,2.5,1.6c0.5,0,0.9,0,1.2,0
		c0.5-0.1,0.8-0.3,1.1-0.5c0.5-0.5,0.8-1.4,1.1-2.8c0.6-2.2,1-3.6,1.2-4.1c0.5-0.9,1.1-1.6,1.8-1.9c0.7-0.5,1.6-0.6,2.7-0.5
		c1.8,0.2,3.1,1.1,3.9,2.7C903.3,389.2,903.6,390,904,391.1z"/>
	<path class="st11" d="M961,376c0,5.9,0.5,10.4,1.4,13.6c1.3,4.2,3.5,6.5,6.5,6.9c0.5,0.1,0.8,0.2,1.1,0.2c0.7-0.9,0.9-3.1,0.7-6.4
		c-0.4-3.2-0.5-5.1-0.5-5.7c0-2.6,0.5-4.7,1.4-6.2c0.7-1.2,1.9-2.1,3.7-2.7h0.2c0.4-0.5,0.6-1.7,0.9-3.7c0.4-3.7,1.3-6.4,2.8-8.1
		c3.2-3.4,7.9-5.5,14.2-6.4c7.9-1.2,13,1,15.2,6.5c0.6,1.7,0.6,4.1,0,7.3c-0.1,0.5-0.3,1.5-0.6,3c-0.3,1.5-0.5,2.7-0.6,3.5
		c-0.4,1.7-0.4,2.7,0,3.2c0.2,0.2,0.9,0.3,1.9,0.2c2.1-0.1,4.1-1,5.8-2.7c0.2-0.5,0.5-0.9,0.9-1.2c0.1-0.1,0.2-0.2,0.4-0.4
		c0.4-0.5,0.7-1,1.1-1.6c0.7-1.2,1.5-2.7,2.3-4.4c0.4-0.9,0.6-1.6,0.7-1.9c0.2-0.4,0.5-0.6,0.7-0.9c0.7-0.9,1.6-1.5,2.7-1.6
		c2.1-0.1,3.8,0.8,5,2.7c0.4,0.5,0.6,1.1,0.7,1.9c0.1,0,0.2,0.1,0.4,0.2l1.2,0.9c0.1,0,0.5-0.3,1.2-0.9c2.1-1.9,2.5-5.1,1.2-9.6
		c-0.6-2.1-2.1-5.8-4.6-11.2c-3.1-6.5-7.3-10.9-12.7-13.3c-4.7-2.1-11-2.8-18.9-2.1c-7.1,0.6-15,2.3-23.9,5.1
		c-10.5,3.4-17.3,7-20.4,10.6c-1.3,1.5-2.1,3.8-2.3,6.7c-0.1,0.9-0.2,2.2-0.2,3.9c0,2-0.1,3.4-0.2,4.2c0,0.7-0.1,1.9-0.4,3.7
		l-0.5,4.1c-0.4,3.2-0.2,5.5,0.4,6.9c0.1,0.4,0.2,0.6,0.4,0.7c0.4-0.2,0.8-0.6,1.2-1.2c0.8-1.2,1.7-2.8,2.5-4.8
		c0.1-0.5,0.4-0.9,0.7-1.4c0.7-0.9,1.7-1.4,2.8-1.4c0.9,0,1.8,0.4,2.5,1.1S961,375.1,961,376z"/>
	<path class="st11" d="M1070.5,376c0,5.9,0.5,10.4,1.4,13.6c1.3,4.2,3.5,6.5,6.5,6.9c0.5,0.1,0.8,0.2,1.1,0.2
		c0.7-0.9,0.9-3.1,0.7-6.4c-0.4-3.2-0.5-5.1-0.5-5.7c0-2.6,0.5-4.7,1.4-6.2c0.7-1.2,1.9-2.1,3.7-2.7h0.2c0.4-0.5,0.6-1.7,0.9-3.7
		c0.4-3.7,1.3-6.4,2.8-8.1c3.2-3.4,7.9-5.5,14.2-6.4c7.9-1.2,13,1,15.2,6.5c0.6,1.7,0.6,4.1,0,7.3c-0.1,0.5-0.3,1.5-0.6,3
		c-0.3,1.5-0.5,2.7-0.6,3.5c-0.4,1.7-0.4,2.7,0,3.2c0.2,0.2,0.9,0.3,1.9,0.2c2.1-0.1,4.1-1,5.8-2.7c0.2-0.5,0.5-0.9,0.9-1.2
		c0.1-0.1,0.2-0.2,0.4-0.4c0.4-0.5,0.7-1,1.1-1.6c0.7-1.2,1.5-2.7,2.3-4.4c0.4-0.9,0.6-1.6,0.7-1.9c0.2-0.4,0.5-0.6,0.7-0.9
		c0.7-0.9,1.6-1.5,2.7-1.6c2.1-0.1,3.8,0.8,5,2.7c0.4,0.5,0.6,1.1,0.7,1.9c0.1,0,0.2,0.1,0.4,0.2l1.2,0.9c0.1,0,0.5-0.3,1.2-0.9
		c2.1-1.9,2.5-5.1,1.2-9.6c-0.6-2.1-2.1-5.8-4.6-11.2c-3.1-6.5-7.3-10.9-12.7-13.3c-4.7-2.1-11-2.8-18.9-2.1
		c-7.1,0.6-15,2.3-23.9,5.1c-10.5,3.4-17.3,7-20.4,10.6c-1.3,1.5-2.1,3.8-2.3,6.7c-0.1,0.9-0.2,2.2-0.2,3.9c0,2-0.1,3.4-0.2,4.2
		c0,0.7-0.1,1.9-0.4,3.7l-0.5,4.1c-0.4,3.2-0.2,5.5,0.4,6.9c0.1,0.4,0.2,0.6,0.4,0.7c0.4-0.2,0.8-0.6,1.2-1.2
		c0.8-1.2,1.7-2.8,2.5-4.8c0.1-0.5,0.4-0.9,0.7-1.4c0.7-0.9,1.7-1.4,2.8-1.4c0.9,0,1.8,0.4,2.5,1.1S1070.5,375.1,1070.5,376z"/>
	<path class="st11" d="M1193,392.1c0.5,0.5,0.9,1.1,1.4,1.9c0.7,0.8,1.3,1.2,1.8,1.2l0.2-0.2c0.6-0.1,1-0.6,1.2-1.6
		c0.5-1.5,0.6-3.8,0.4-6.9c0-1.1-0.3-4-0.9-8.7c-0.4-3.5-0.4-6-0.2-7.4c0-0.1,0.1-0.4,0.2-0.9c0-0.6,0.1-1.1,0.2-1.4
		c0.1-0.9,0.4-1.8,0.9-2.5c0.8-1.2,2-1.8,3.5-1.8l-1.8-6.9c-0.9-4-1.8-7.2-2.5-9.6c-0.5-1.3-0.8-2.3-1.1-3l-0.4-0.7
		c-1.3-0.4-3.2-0.5-5.8-0.4c-3,0.2-6.1,0.8-9.4,1.8c-3.4,1.1-6.2,2.3-8.3,3.7c-2.1,1.3-3.2,2.5-3.4,3.7c-0.5,3.8,1.1,8.4,4.6,14
		l2.3,3.4l2.7,3.9c0.6,0.9,1.3,2.1,2,3.5c0.8,1.4,1.3,2.7,1.7,3.9c0.5,1.2,0.8,3.8,1.1,8c0.2,3.2,0.7,5.3,1.4,6.4
		c0.6,1.2,1.3,1.3,2.1,0.4c-0.9-1.8-0.6-3.3,1.1-4.6c0.7-0.6,1.6-0.8,2.6-0.7C1191.6,390.8,1192.4,391.3,1193,392.1z"/>
	<path class="st11" d="M1260.3,380.1h0.5c0.4,0,0.8-0.1,1.4-0.4c2.7-1.1,4.4-2.9,5-5.7c0.1-0.8,0.2-2.2,0.4-4.2
		c0.2-2.2,0.5-4,0.7-5.1c0.4-1.4,1.1-3.4,2.1-5.8c1.1-2.4,1.7-4,1.9-4.8c0.9-3.2,0.1-5.9-2.7-8.1c-2.6-2.1-7.6-3.2-15-3.4
		c-3.3,0-6.3,0.3-8.8,0.9c-2.6,0.7-4.4,1.6-5.5,2.7c-0.5,0.5-1.1,1.9-1.8,4.2c-0.8,2.4-1.6,5.1-2.3,8.1c-0.7,3.1-1.2,5.8-1.6,8.3
		c-0.1,0.5-0.2,0.9-0.2,1.2c0.7-0.2,1.5-0.3,2.3-0.2c1.1,0.2,1.9,0.9,2.5,1.9c0.1,0.2,0.2,0.6,0.4,1.1c0.1,0.4,0.2,0.8,0.2,1.2v2.3
		c0,2.6,0.1,4.5,0.2,5.8c0.2,2,0.6,3.4,1.1,4.2l0.2-0.2c0.8-0.2,1.9-1.2,3.2-2.8c1.3-1.4,2.8-3.4,4.4-6l3.7-6l1.6-2.1
		c0.4-0.5,0.7-0.8,1.1-1.1c1.1-0.8,2.2-1.1,3.4-0.7c0.2,0,0.5,0.1,0.7,0.2c0.4,0,0.6,0.1,0.9,0.4c1.5,1.3,2.2,2.9,2.1,4.8
		c-0.1,1.1-0.6,2.5-1.4,4.2c-0.6,1.7-0.9,2.8-1.1,3.4C1259.7,379.2,1259.9,379.7,1260.3,380.1z"/>
	<path class="st11" d="M1291.1,395.3c0.4-0.2,0.7-0.5,1.1-0.8c0.4-0.3,0.7-0.4,1.1-0.4c0.2-0.1,0.6-0.2,1.1-0.2h0.4
		c0.4-0.4,0.8-0.6,1.4-0.7c0.9-0.2,1.8-0.1,2.7,0.4c0.8,0.5,1.4,1.2,1.6,2.1c0.7,2.4,1.7,4.2,3,5.5c1.5,0.4,2.8,0.4,3.7,0
		c1.2-0.2,2.1-0.9,2.7-1.9c0.2-0.6,0.5-1.2,0.7-1.9c0.4-1.8,0.6-4.4,0.7-7.8c0.1-4.8,0.3-7.8,0.5-9c1.1-7.7,5.4-12.6,12.9-14.9
		c2.2-0.7,4.5-1,6.9-0.9c3.4,0.1,6,1.1,7.8,2.8c2,2,3.2,5,3.7,9c0.9,2.8,1.9,4.8,3,5.8c1.5,1.7,3.7,1.9,6.4,0.9
		c1.4-0.6,2.6-1.4,3.6-2.5c1-1.1,1.7-2,2.2-2.7c0.5-0.8,1.2-2.2,2.3-4.3l0.2-0.4v-0.7l0.4-1.9c0.1-0.2,0.2-0.5,0.2-0.7v-0.2v-0.2
		c-0.1-5.8-1.8-10.4-5-14c-4.4-5-11.2-7.1-20.5-6.4c-2.6,0.2-6,1-10.1,2.3c-5.4,1.7-8.9,2.7-10.4,3c-2.2,0.4-4.9,0.2-8-0.5
		c-3.8-0.8-6.1-1.3-6.9-1.4c-2.8-0.2-4.8,0.5-6,2.3c-1.4,2.1-2.1,5-1.9,8.5c0.4,5.9,0.5,9.3,0.4,10.3c-0.1,0.9-1.1,4.8-3,11.7
		c-1.3,4.4-1.7,7.8-1.1,10.4c0.1,0.6,0.3,1,0.4,1.3c0.2,0.3,0.3,0.4,0.4,0.4h0.2c0.2,0,0.5-0.1,0.9-0.2
		C1290.2,396.5,1290.4,395.8,1291.1,395.3z"/>
	<path class="st11" d="M1405.9,386.6c0.2-0.2,0.7-0.8,1.4-1.8l0.2-0.4c0-0.4,0.1-1.3,0.2-2.8c0.4-2.8,0.7-4.8,1.1-5.8
		c0-0.1,0.1-0.4,0.2-0.7c0.2-0.6,0.4-1.1,0.5-1.4c0.2-0.8,0.6-1.5,1.2-2.1c1.3-1.3,2.8-1.7,4.4-1.1c1.2,0.5,2.1,1.4,2.7,2.8
		c0.4,0.6,0.6,1.4,0.7,2.3c0.4,1.4,0.6,3.2,0.7,5.5c0.1,0.7,0.2,2.5,0.4,5.5c0.1,1.5,0.2,2.4,0.2,2.7c0.2,0.8,0.8,2.2,1.6,4.1
		l0.7-0.4c0.8-0.5,1.7-0.6,2.7-0.5c0.4,0.1,0.9,0.4,1.8,0.9c0.7,0.4,1.2,0.6,1.6,0.7c0.4,0.1,0.6,0.2,0.7,0.2c0.1,0,0.2-0.1,0.4-0.4
		c0.6-1.3,0.3-3.9-0.9-7.8c-1.5-5.4-2.3-8.7-2.3-9.7c-0.1-1.8,0.3-7.8,1.2-18.2c0.4-4.5,0.6-7.8,0.7-9.9c0.1-1.4,0.2-2.5,0.2-3.4
		v-1.4c-0.5-1.2-1.7-2.1-3.7-2.8c-0.9-0.2-2-0.4-3.3-0.4c-1.2-0.1-2.2,0-2.9,0.1c-0.7,0.1-2,0.4-3.8,0.7c-1.8,0.4-3,0.6-3.5,0.7
		c-5.5,0.9-9.4,1.9-11.7,3c-1.9,0.8-3.1,1.9-3.5,3.2c-0.4,1.1-0.4,3.2-0.2,6.4c0.5,5.1,0.7,8.9,0.7,11.3c0,0.7-0.2,2.3-0.5,4.8
		c-0.5,3.4-0.8,5.7-0.9,6.9c-0.2,2.7-0.3,4.8-0.2,6.2c0,0.8,0.1,1.5,0.2,1.9c0.1,0,0.2,0.1,0.2,0.2l0.5-0.9l0.5-1.1
		c0.2-0.4,0.4-0.7,0.5-1.1c0.7-1.2,1.5-1.8,2.5-1.9c1.7-0.2,3.1,0.4,4.2,1.9c0.4,0.5,0.7,1.1,1.1,1.8c0.6,0.8,0.9,1.3,0.9,1.4
		C1405.5,386.1,1405.7,386.4,1405.9,386.6z"/>
	<path class="st11" d="M1552,380.4h0.2c0.2-0.5,0.4-1.1,0.5-1.9l1.2-4.4c0.8-2.4,1.9-4,3.4-5c2-1.3,4-1.5,6-0.7
		c1.2,0.5,2.2,1.4,3.2,2.7c0.9,0,1.6-0.3,1.9-0.9c0.7-1.1,0.8-2.9,0.4-5.7c-1.2-5.2-3.4-10.1-6.5-14.7c-3.8-5.4-8.5-9.3-14.2-11.6
		c-5.7-2.3-11.7-3.1-17.9-2.3c-6.2,0.8-12.3,2.9-18.3,6.3c-8,4.4-14.9,10.7-20.5,19.1c-0.6,0.9-1.7,3.4-3.2,7.4
		c-1.5,4-2.8,8.1-3.9,12.2c-1.4,5-2.2,9-2.3,12c0,1.7,0.1,2.9,0.4,3.7c0.2,0.7,0.5,1.1,0.9,1.2c0.2,0,0.4-0.1,0.5-0.2
		c0.4-0.4,0.7-1,1.1-1.9c0.1-0.5,0.3-1,0.5-1.7c0.2-0.6,0.4-1.1,0.5-1.3c0.2-0.6,0.4-1.1,0.5-1.4c0.4-0.6,0.8-1,1.4-1.2
		c1.1-0.5,2-0.4,2.8,0.2c0.7,0.4,1.2,1,1.6,1.9c0.4,0.7,0.7,2.3,1.1,4.8c0.5,2.2,0.9,3.8,1.2,4.8c0.5,1.2,0.9,1.9,1.4,2.1
		c0.4,0,0.6,0.1,0.9,0.2c0.6-1.3,1.2-2.9,1.8-5l3.7-14v-0.4c0-0.2,0.1-0.5,0.2-0.7c0.6-2.4,1.1-4.1,1.4-5.1l0.9-2.3
		c0.7-1.4,1.7-2.2,3-2.5c2.2-0.4,4,0.2,5.3,1.8c0.4-0.1,0.6-0.4,0.9-0.7c0.9-1.1,2.4-3.7,4.4-7.8c2.1-4.4,4-7.4,5.5-9
		c2.7-3.2,5.8-4.4,9.2-3.5c4.7,1.3,8,5.2,9.9,11.7c1.8,5.8,2.7,8.9,2.8,9.4c0.7-0.4,1.4-0.5,2.1-0.5c1.1,0,1.9,0.4,2.7,1.2
		c0.4,0.4,0.6,0.7,0.7,1.1c0.1,0.4,0.2,0.8,0.4,1.2C1551.7,379.4,1551.8,379.9,1552,380.4z"/>
	<path class="st11" d="M1608.1,397.1l1.9,4.1l0.9,1.9c0.4,0.1,0.8,0.2,1.2,0.2c1.9,0.1,3.2-0.2,3.9-1.1c0.6-0.8,1-2.1,1.2-3.9
		c0-0.2,0.1-2.1,0.2-5.7c0-2.5,0.3-4.4,0.9-5.7c0.4-0.7,0.7-1.2,1.1-1.6c0.7-0.8,1.5-1.1,2.5-0.7c0.5,0.2,0.9,0.7,1.2,1.4l0.5,1.1
		c0.1,0.2,0.2,0.5,0.2,0.7c0.1-0.1,0.2-0.3,0.4-0.5c0.2-0.6,0.5-1.4,0.7-2.3c0.1-0.4,0.3-0.9,0.4-1.6s0.4-1.3,0.6-1.8l0.4-1.4
		c2.1-5.4,5.5-10.7,10.1-15.9c0.4-0.4,0.8-0.5,1.2-0.5c1.9-1.1,3.5-1.4,4.8-1.1c1.5,0.4,2.7,1.4,3.4,3.2c0.7,1.7,1.3,5.4,1.8,11.3
		c0.5,5.8,1.2,10,2.1,12.6c1.4,3.9,3.7,6.3,6.7,7.1c3.4,0.9,5.9,1.1,7.4,0.5c2.7-1.1,4.4-3.8,5-8.1c0.6-4.1,0.2-9.3-1.2-15.4
		c-1.3-5.7-3.1-11-5.5-16.1c-2.2-5-4.4-8.3-6.4-10.1c-2-1.8-5.6-2.9-10.8-3.5c-9.9-1.2-17.9,0.9-23.9,6.4c-2.6,2.4-4.9,5.2-7,8.4
		c-2.1,3.2-4.6,7.8-7.7,13.5l-1.9,3.4l-2.1,3.7c-0.5,0.9-1,2.1-1.6,3.5c-0.6,1.4-1,2.6-1.2,3.8c-0.2,0.8-0.3,2.4-0.2,4.6
		c0.2,2.4,0.6,4.4,1.1,6.2c0.2,0.8,0.5,1.5,0.7,1.9c0.1-0.2,0.2-0.5,0.4-0.9c-0.1-1.7,0.6-2.8,2.1-3.4c0.8-0.5,1.7-0.5,2.7-0.2
		C1607.1,395.5,1607.7,396.1,1608.1,397.1z"/>
	<path class="st11" d="M1697.6,389.5c0.5,0.5,0.8,0.8,1.1,0.9c0.2,0,0.6-0.2,1-0.5c0.4-0.4,0.9-0.8,1.3-1.4c-0.5-3.9-0.6-6.5-0.4-8
		c0.5-2.4,1.1-4.1,1.9-5.3c2.7-3.3,5.4-4.2,8.1-2.7c1.7,0.9,2.9,2.9,3.7,5.8c0.2,0.7,0.5,1.7,0.7,2.8l0.4-1.2
		c1.2-3.1,2.1-5.2,2.7-6.4c0.7-1.3,1.5-2.2,2.3-2.8c1.7-1.2,3.4-1.4,5.1-0.5c0.2,0,0.5,0.1,0.7,0.4l0.2-1.4c0.7-5.5,1-9.6,0.9-12
		c-0.1-3.9-1.1-6.7-2.8-8.5c-2-2.2-5.4-3.4-10.1-3.4c-3.2,0-5.4,0-6.6,0.1c-1.2,0.1-3,0.3-5.1,0.7c-2.2,0.4-4.1,1.1-5.8,2
		c-1.5,0.8-2.5,1.9-2.8,3.4c-0.4,1.3-0.2,3.1,0.4,5.3c0.1,0.7,0.8,2.8,1.9,6.4c0.8,2.7,1.3,4.9,1.4,6.5c0,0.5-0.1,1.9-0.2,4.2
		c-0.1,3.7-0.2,5.9-0.2,6.7c-0.1,2.7-0.1,4.8,0,6.2v2.1C1697.5,389.2,1697.5,389.4,1697.6,389.5z"/>
	<path class="st11" d="M1766.3,384.3l0.5-0.5c0.6-0.8,1.3-2,2.1-3.5c1.4-2.2,3-5.5,4.8-9.7c1.9-4.1,2.8-6.3,2.8-6.4
		c0.8-1.4,2.9-3,6.4-4.8c2.2-1.2,3.4-2.3,3.5-3.4c0.2-1.8-0.7-3.8-2.8-6.2c-1.9-2-4-3.6-6.2-4.8c-4.2-2.2-7.8-3.1-10.8-2.5
		c-2.5,0.6-4.7,2.2-6.7,4.8c-1.2,1.5-2.2,3.3-3.1,5.3c-0.9,2-1.9,4.7-3.2,8.1c-1.2,3.4-2,5.6-2.4,6.5c-0.4,0.9-0.8,1.9-1.4,2.9h0.4
		c2,0,3.4,0.9,4.2,2.7c0.6,1.3,0.6,3.3,0.2,6c-0.1,0.6-0.3,1.4-0.6,2.6c-0.3,1.1-0.4,1.9-0.4,2.2c0.1-0.2,0.3-0.5,0.5-0.7
		c0.4-0.5,0.9-1.1,1.7-1.9c0.8-0.8,1.3-1.4,1.5-1.8c0.8-0.8,1.5-1.4,2.1-1.8c1.3-0.9,2.6-1.3,3.9-1.1c1.3,0.2,2.2,1,2.7,2.3
		c0.1,0.5,0.2,0.9,0.2,1.4c0,0.2-0.1,0.5-0.2,0.7v0.4c0,0.1-0.1,0.2-0.2,0.2C1765.9,382.6,1766.1,383.6,1766.3,384.3z"/>
	<path class="st11" d="M1853.4,361.9c0.5,0.1,1.3,0.2,2.5,0.4c1.8,0.1,3.1,0.4,3.9,0.9c1.2,0.5,2,1.3,2.5,2.5c1.9,1.3,3,3.1,3.4,5.5
		c0.1,1.1,0.1,3-0.2,5.7c0,0.2-0.1,0.5-0.2,0.9c0.6,1.1,1.4,1.7,2.3,1.8c0.9,0.1,2.2-0.2,3.7-0.9c0.7-0.4,1.4-0.8,2.1-1.4
		c0.5-0.6,0.8-1.1,1.1-1.4c1.4-1.7,2.9-2.7,4.6-3c0.8-0.1,1.8,0.1,2.8,0.5c0.7,0.4,1.5,0.9,2.3,1.6c0.4,0.2,1.1,0.9,2.3,1.9
		c0.9,0.8,1.7,1.4,2.1,1.8c1.3,1.1,2.2,1.5,2.7,1.4c0.4,0,0.6-0.9,0.9-2.7c0.2-1.3-0.5-4.4-2.1-9.2c-3.5-9.9-7.8-17-12.7-21.2
		c-5.5-4.7-13.3-6.9-23.2-6.5c-12.6,0.5-23,4.9-31.2,13.3c-8.2,8.4-12.3,18.8-12.3,31.3v3c-0.1,1.4-0.2,2.6-0.2,3.5
		c0.1,2.5,0.5,4.1,1.2,5c0.2-0.2,0.5-0.6,0.9-1.2c0.9-1.4,1.7-2.4,2.1-2.8c1.2-1.3,2.5-1.7,4-1.3c1.5,0.4,2.8,1.3,4,2.7l1.4,1.8
		c0.5,0.7,0.8,1.2,0.9,1.4c0.7,0.8,1.2,1.3,1.6,1.4c0.6,0,1.4-0.4,2.3-1.1c0-0.1,0.1-0.2,0.2-0.4c0.1-1.3,0.2-2.9,0.2-5
		c0-1.3-0.1-3.2-0.2-5.8c-0.1-2.6-0.2-4.4-0.2-5.5v-2.3v-0.2c-0.5-4-0.4-6.9,0.4-8.7c0.9-2.2,2.3-3.4,4.1-3.4c1.1,0,2.4,0.6,3.9,1.8
		c1.4,0.9,2.3,1.5,2.7,1.6c0.4,0.1,0.6,0.1,0.7-0.2c0.4-0.2,0.6-0.9,0.9-1.9c0-0.2,0.1-0.5,0.2-0.9c0-2.5,0.4-4.4,1.1-5.8
		c0.8-1.7,2.1-2.6,3.7-2.8C1848.7,357.7,1851,359,1853.4,361.9z"/>
</g>
</svg>
