<svg xmlns="http://www.w3.org/2000/svg" viewBox="0 0 2000 800"><style>.st0{enable-background:new ;} .st1{fill-rule:evenodd;clip-rule:evenodd;fill:#263238;} .st2{fill:#FFFF00;} .st3{fill:#FFEA00;} .st4{fill:#FFD600;} .st5{fill:#FFC107;} .st6{opacity:0.1;} .st7{fill-rule:evenodd;clip-rule:evenodd;fill:#FFFFFF;} .st8{fill-rule:evenodd;clip-rule:evenodd;fill:#5C6BC0;} .st9{fill-rule:evenodd;clip-rule:evenodd;} .st10{fill-rule:evenodd;clip-rule:evenodd;fill:#C62828;} .st11{fill-rule:evenodd;clip-rule:evenodd;fill:#FFD600;} .st12{fill-rule:evenodd;clip-rule:evenodd;fill:#546E7A;}</style><g id="HappyBlocks_1_" class="st0"><path id="Rectangle_arrondi_1_3_" d="M631 84.2H99c-27.5 0-49.9 22.3-49.9 49.9V666c0 27.5 22.3 49.9 49.9 49.9h532c27.5 0 49.9-22.3 49.9-49.9V134c-.1-27.5-22.4-49.8-49.9-49.8z" class="st1"/><path d="M365 664c150 0 200-114 200-264S464 136 364.5 136 165 250 165 400s50 264 200 264z" class="st2"/><path d="M192.3 270h345.2c-8.2-18.2-18.1-34.9-29.1-50H221.2c-11 15.1-20.8 31.8-28.9 50z" class="st3"/><path d="M221.2 220h287.2c-14.5-19.8-31.2-36.7-49.1-50H270c-17.8 13.3-34.4 30.2-48.8 50z" class="st4"/><path d="M364.5 136c-32.6 0-65.3 12.2-94.5 34h189.2c-29.3-21.8-62.1-34-94.7-34z" class="st5"/><circle cx="240" cy="355" r="25" class="st5"/><circle cx="490" cy="355" r="25" class="st5"/><circle cx="365" cy="355" r="25" class="st4"/><path d="M365 400l-199.4-19.9c-.4 6.6-.6 13.2-.6 19.9l200 20 200-20c0-6.7-.2-13.4-.6-19.9L365 400zM188.1 547.7c2.6 6.6 5.4 13 8.4 19.2L365 550l168.5 16.9c3.1-6.2 5.9-12.5 8.4-19.2L365 530l-176.9 17.7z" class="st3"/><path d="M554.4 506.3c4.7-20.6 7.7-42.6 9.2-65.8L465 475l89.4 31.3zM265 475l100 35 100-35-100-35zm-89.4 31.3L265 475l-98.7-34.5c1.6 23.2 4.6 45.2 9.3 65.8z" class="st4"/><path d="M186.8 283.1L265 330l100-60H192.3c-2 4.3-3.8 8.6-5.5 13.1zM537.5 270H365l100 60 78.1-46.8c-1.8-4.5-3.7-8.9-5.6-13.2z" class="st5"/><path d="M217.2 600h295.5c4.9-6.3 9.5-13 13.6-20H203.6c4.2 7 8.7 13.7 13.6 20z" class="st4"/><path d="M365 620l-74 32.6c21.4 7.4 46 11.4 74 11.4s52.6-4 74-11.4L365 620z" class="st5"/><path d="M365 136v528c150 0 200-114 200-264 0-149.7-100.7-263.6-200-264z" class="st6"/><path id="Forme_9_copie_3_6_" d="M473.1 283.6c-55.8 0-55 83.1 0 83.1 55 .1 55.7-83.1 0-83.1z" class="st7"/><path id="Forme_9_copie_3_4_" d="M457.4 320c-27.9 0-27.5 41.6 0 41.6 27.6 0 27.9-41.6 0-41.6z" class="st8"/><path id="Forme_9_copie_2_2_" d="M257 283.6c-55.8 0-55 83.1 0 83.1 55 .1 55.8-83.1 0-83.1z" class="st7"/><path id="Forme_9_copie_2_" d="M272.5 320c-27.9 0-27.5 41.6 0 41.6 27.6 0 27.9-41.6 0-41.6z" class="st8"/><path id="Forme_8_2_" d="M281.9 449.9s20.8 66.5 83.1 66.5 83.1-66.5 83.1-66.5H281.9z" class="st9"/><path id="Forme_8_copie_2_" d="M365 485.9c-28.2 0-33.8 23.6-33.8 23.6s14.9 6.9 33.8 6.9 33.8-6.9 33.8-6.9-5.6-23.6-33.8-23.6z" class="st10"/></g><g id="Texte" class="st0"><path id="HappyBlocks" d="M832.1 370.4h-63.6v-59.2h-24.7v142.2h24.7v-63.1h63.6v63.1h24.6V311.3h-24.6v59.1zm134.9 11c-.2-11.3-4-20-11.3-26.2-7.4-6.2-17.2-9.3-29.6-9.3-8.1 0-15.5 1.4-22.1 4.3-6.6 2.9-11.8 6.8-15.7 11.9-3.8 5-5.8 10.5-5.8 16.3h23.7c0-4.2 1.7-7.6 5.2-10.3 3.5-2.7 7.9-4.1 13.3-4.1 6.2 0 10.9 1.6 14 4.9 3.1 3.3 4.6 7.7 4.6 13.1v6.9h-14.6c-15.6 0-27.5 3-35.9 9-8.4 6-12.5 14.7-12.5 25.9 0 8.9 3.4 16.4 10.1 22.5 6.7 6.1 15.4 9.1 26 9.1 10.9 0 20.2-3.9 27.7-11.8.8 4.6 1.7 7.8 2.7 9.9H971v-1.7c-2.7-5.7-4-13.2-4-22.8v-47.6zm-23.7 42.4c-2.1 3.8-5.2 6.9-9.3 9.2-4.1 2.3-8.5 3.4-13.2 3.4-5.1 0-9.1-1.4-12.2-4.1-3-2.7-4.5-6.3-4.5-10.9 0-5.6 2.2-9.9 6.6-13 4.4-3.1 11-4.6 19.8-4.6h12.8v20zm99.8-78c-12 0-21.5 4.2-28.4 12.7l-1-10.7h-21.9v146.3h23.7V444c7 7.6 16.2 11.4 27.8 11.4 12.5 0 22.5-4.9 29.9-14.6 7.4-9.7 11.1-22.8 11.1-39.1v-1.5c0-17.1-3.7-30.4-11-40-7.2-9.6-17.3-14.4-30.2-14.4zm11.3 81.5c-4.3 6.1-10.2 9.1-17.7 9.1-9.8 0-16.8-4.1-21.1-12.3v-46.9c4.2-8 11.2-12 20.9-12 7.8 0 13.8 3.1 18 9.3 4.2 6.2 6.3 14.6 6.3 25.1-.1 12.4-2.2 21.6-6.4 27.7zm101.3-81.5c-12 0-21.5 4.2-28.4 12.7l-1-10.7h-21.9v146.3h23.7V444c7 7.6 16.2 11.4 27.8 11.4 12.5 0 22.5-4.9 29.9-14.6 7.4-9.7 11.1-22.8 11.1-39.1v-1.5c0-17.1-3.7-30.4-11-40-7.2-9.6-17.3-14.4-30.2-14.4zm11.3 81.5c-4.3 6.1-10.2 9.1-17.7 9.1-9.8 0-16.8-4.1-21.1-12.3v-46.9c4.2-8 11.2-12 20.9-12 7.8 0 13.8 3.1 18 9.3 4.2 6.2 6.3 14.6 6.3 25.1-.1 12.4-2.2 21.6-6.4 27.7zm107.4-79.5l-21.5 71.7-22.4-71.7H1205l37.1 105.1-3.4 9.1c-1.8 5.1-4.2 8.8-7.2 11-3 2.2-7.5 3.3-13.5 3.3l-4.5-.3v18.4c4.2 1.2 8 1.8 11.4 1.8 15.4 0 26.4-8.9 32.8-26.7l42-121.7h-25.3z" class="st11"/><path id="Blocks" d="M1393 379.4c6.8-2.9 11.9-6.9 15.4-12.1 3.5-5.2 5.3-11.1 5.3-17.6 0-12.8-4.2-22.4-12.6-28.8-8.4-6.4-20.6-9.7-36.7-9.7h-48.7v142.2h51.9c15.9 0 28.2-3.6 36.8-10.7 8.6-7.2 12.8-17.4 12.8-30.8 0-8.1-2.1-15-6.3-20.8-4.3-5.7-10.2-9.6-17.9-11.7zm-52.7-48.2h24c8.5 0 14.7 1.6 18.7 4.7s6 8.2 6 15.2c0 6.4-2.2 11.3-6.5 14.8s-10.3 5.2-18 5.2h-24.2v-39.9zm45.6 96.6c-4.4 3.8-10.4 5.7-18.2 5.7h-27.4v-44.2h29.5c15.1.3 22.7 7.8 22.7 22.6 0 6.7-2.2 12.1-6.6 15.9zm55.1 25.6h23.7v-150H1441v150zm128.9-93.8c-8.9-9.2-20.5-13.8-34.7-13.8-9.6 0-18.2 2.2-25.6 6.7-7.4 4.5-13.2 10.8-17.3 19.1s-6.2 17.6-6.2 28v1.2c0 16.5 4.5 29.8 13.4 39.7 9 9.9 20.9 14.9 35.8 14.9 9.8 0 18.4-2.2 25.8-6.7 7.5-4.5 13.2-10.8 17.2-19s6-17.5 6-27.9l-.1-5.6c-.6-15.2-5.4-27.4-14.3-36.6zm-15.8 67.5c-4.5 6.3-10.7 9.4-18.7 9.4s-14.3-3.1-18.8-9.2-6.7-14.7-6.7-25.5c0-12.2 2.3-21.4 6.8-27.6 4.6-6.2 10.7-9.2 18.5-9.2 7.9 0 14.1 3.1 18.7 9.4s6.9 14.7 6.9 25.4c0 11.9-2.3 21-6.7 27.3zm76-53.9c4.2-5.6 10.1-8.3 17.8-8.3 6 0 10.9 2 14.8 5.9 3.9 3.9 5.9 8.9 6.2 14.9h22.4c-.4-11.9-4.5-21.5-12.5-28.9s-18.1-11-30.7-11c-14.8 0-26.6 4.8-35.2 14.5S1600 382.9 1600 399v2.4c0 16.9 4.3 30.1 13 39.6 8.7 9.6 20.4 14.4 35.2 14.4 7.6 0 14.7-1.7 21.3-5 6.6-3.3 11.8-7.8 15.6-13.5 3.8-5.7 5.9-11.8 6.2-18.4h-22.4c-.3 5.1-2.3 9.3-6.3 12.8-3.9 3.5-8.8 5.2-14.7 5.2-7.8 0-13.8-2.8-17.9-8.4-4.1-5.6-6.2-14.2-6.2-25.6v-3.8c0-11.5 2.1-19.9 6.3-25.5zm168-25.4h-28.5l-29.2 32.9-7.4 9.3v-86.5h-23.7v150h23.7V419l10.5-10.8 31.3 45.3h27.4l-43.5-61.6 39.4-44.1zm94.1 61.2c-2.6-4-6.5-7.4-11.8-10.2-5.3-2.8-12.6-5.3-21.9-7.3-9.3-2.1-15.5-4.1-18.6-6.1-3.1-2-4.6-4.8-4.6-8.5 0-4 1.6-7.3 4.9-9.7 3.3-2.4 7.5-3.6 12.7-3.6 5.6 0 10.1 1.5 13.5 4.5 3.4 3 5.1 6.8 5.1 11.4h23.7c0-10-3.9-18.1-11.7-24.3-7.8-6.3-18-9.4-30.6-9.4-11.9 0-21.6 3.1-29.3 9.2-7.7 6.1-11.5 13.7-11.5 22.9 0 10.9 5.9 19.2 17.8 24.9 5.4 2.6 12.1 4.8 20.2 6.4 8.1 1.7 13.9 3.6 17.3 5.9 3.5 2.2 5.2 5.4 5.2 9.7 0 3.8-1.6 7-4.9 9.3-3.3 2.4-8 3.6-14.3 3.6-6.4 0-11.6-1.5-15.5-4.5s-6-7.3-6.3-12.9h-23c0 6.3 1.9 12.2 5.7 17.7 3.8 5.5 9 9.8 15.8 12.9 6.8 3.1 14.5 4.7 23.1 4.7 12.8 0 23.1-2.9 31-8.8 7.9-5.9 11.8-13.6 11.8-23.1.1-5.9-1.2-10.7-3.8-14.7z" class="st12"/></g></svg>